<svg width="32" height="32" viewBox="0 0 32 32" fill="none" xmlns="http://www.w3.org/2000/svg">
<path d="M24 17L25.912 20.703L30 21.297L27 24L27.771 28L24 25.75L20.229 28L21 24L18 21.297L22.2 20.703L24 17Z" fill="#0D0D26" fill-opacity="0.7"/>
<path d="M6 16H12V18H6V16Z" fill="#0D0D26" fill-opacity="0.7"/>
<path d="M6 12H16V14H6V12Z" fill="#0D0D26" fill-opacity="0.7"/>
<path d="M6 8H16V10H6V8Z" fill="#0D0D26" fill-opacity="0.7"/>
<path d="M16 26H4V6H28V16H30V6C30 5.46957 29.7893 4.96086 29.4142 4.58579C29.0391 4.21071 28.5304 4 28 4H4C3.46957 4 2.96086 4.21071 2.58579 4.58579C2.21071 4.96086 2 5.46957 2 6V26C2 26.5304 2.21071 27.0391 2.58579 27.4142C2.96086 27.7893 3.46957 28 4 28H16V26Z" fill="#0D0D26" fill-opacity="0.7"/>
</svg>
