<svg width="14" height="14" viewBox="0 0 14 14" fill="none" xmlns="http://www.w3.org/2000/svg">
<path d="M13.4167 7L11.9934 5.3725L12.1917 3.22L10.0859 2.74167L8.98337 0.875L7.00004 1.72667L5.01671 0.875L3.91421 2.73583L1.80837 3.20833L2.00671 5.36667L0.583374 7L2.00671 8.6275L1.80837 10.7858L3.91421 11.2642L5.01671 13.125L7.00004 12.2675L8.98337 13.1192L10.0859 11.2583L12.1917 10.78L11.9934 8.6275L13.4167 7ZM5.47171 9.33917L4.08337 7.93917C4.0293 7.8852 3.98639 7.8211 3.95712 7.75053C3.92785 7.67996 3.91278 7.60431 3.91278 7.52792C3.91278 7.45152 3.92785 7.37587 3.95712 7.3053C3.98639 7.23473 4.0293 7.17063 4.08337 7.11667L4.12421 7.07583C4.35171 6.84833 4.72504 6.84833 4.95254 7.07583L5.89171 8.02083L8.89587 5.01083C9.12337 4.78333 9.49671 4.78333 9.72421 5.01083L9.76504 5.05167C9.99254 5.27917 9.99254 5.64667 9.76504 5.87417L6.31171 9.33917C6.07254 9.56667 5.70504 9.56667 5.47171 9.33917Z" fill="#5386E4"/>
</svg>
