<svg width="24" height="24" viewBox="0 0 24 24" fill="none" xmlns="http://www.w3.org/2000/svg">
<path d="M3.84004 0.959961V2.87996H1.92004V23.04H7.20004V18.72H9.12004V23.04H14.4V2.87996H12.48V0.959961H3.84004ZM4.80004 4.79996H5.76004V5.75996H4.80004V4.79996ZM6.72004 4.79996H7.68004V5.75996H6.72004V4.79996ZM8.64004 4.79996H9.60004V5.75996H8.64004V4.79996ZM10.56 4.79996H11.52V5.75996H10.56V4.79996ZM15.36 6.71996V8.63996H16.32V9.59996H15.36V10.56H16.32V11.52H15.36V12.48H16.32V13.44H15.36V14.4H16.32V15.36H15.36V16.32H16.32V17.28H15.36V18.24H16.32V19.2H15.36V20.16H16.32V21.12H15.36V23.04H22.08V6.71996H15.36ZM4.80004 7.19996H5.76004V9.11996H4.80004V7.19996ZM6.72004 7.19996H7.68004V9.11996H6.72004V7.19996ZM8.64004 7.19996H9.60004V9.11996H8.64004V7.19996ZM10.56 7.19996H11.52V9.11996H10.56V7.19996ZM17.28 8.63996H18.24V9.59996H17.28V8.63996ZM19.2 8.63996H20.16V9.59996H19.2V8.63996ZM4.80004 10.08H5.76004V12H4.80004V10.08ZM6.72004 10.08H7.68004V12H6.72004V10.08ZM8.64004 10.08H9.60004V12H8.64004V10.08ZM10.56 10.08H11.52V12H10.56V10.08ZM17.28 10.56H18.24V11.52H17.28V10.56ZM19.2 10.56H20.16V11.52H19.2V10.56ZM17.28 12.48H18.24V13.44H17.28V12.48ZM19.2 12.48H20.16V13.44H19.2V12.48ZM4.80004 12.96H5.76004V14.88H4.80004V12.96ZM6.72004 12.96H7.68004V14.88H6.72004V12.96ZM8.64004 12.96H9.60004V14.88H8.64004V12.96ZM10.56 12.96H11.52V14.88H10.56V12.96ZM17.28 14.4H18.24V15.36H17.28V14.4ZM19.2 14.4H20.16V15.36H19.2V14.4ZM4.80004 15.84H5.76004V17.76H4.80004V15.84ZM6.72004 15.84H7.68004V17.76H6.72004V15.84ZM8.64004 15.84H9.60004V17.76H8.64004V15.84ZM10.56 15.84H11.52V17.76H10.56V15.84ZM17.28 16.32H18.24V17.28H17.28V16.32ZM19.2 16.32H20.16V17.28H19.2V16.32ZM17.28 18.24H18.24V19.2H17.28V18.24ZM19.2 18.24H20.16V19.2H19.2V18.24ZM4.80004 18.72H5.76004V21.12H4.80004V18.72ZM10.56 18.72H11.52V21.12H10.56V18.72ZM17.28 20.16H18.24V21.12H17.28V20.16ZM19.2 20.16H20.16V21.12H19.2V20.16Z" fill="#CACBCE"/>
</svg>
