<svg width="17" height="21" viewBox="0 0 17 21" fill="none" xmlns="http://www.w3.org/2000/svg">
<path d="M9 20.167L8.75 17.167H8.5C6.13333 17.167 4.125 16.342 2.475 14.692C0.825 13.042 0 11.0337 0 8.66699C0 6.30033 0.825 4.29199 2.475 2.64199C4.125 0.991992 6.13333 0.166992 8.5 0.166992C9.68333 0.166992 10.7873 0.387659 11.812 0.828992C12.8373 1.27099 13.7377 1.87933 14.513 2.65399C15.2877 3.42933 15.8957 4.32933 16.337 5.35399C16.779 6.37933 17 7.48366 17 8.66699C17 11.2003 16.2417 13.471 14.725 15.479C13.2083 17.4877 11.3 19.0503 9 20.167ZM8.475 14.142C8.75833 14.142 9 14.042 9.2 13.842C9.4 13.642 9.5 13.4003 9.5 13.117C9.5 12.8337 9.4 12.592 9.2 12.392C9 12.192 8.75833 12.092 8.475 12.092C8.19167 12.092 7.95 12.192 7.75 12.392C7.55 12.592 7.45 12.8337 7.45 13.117C7.45 13.4003 7.55 13.642 7.75 13.842C7.95 14.042 8.19167 14.142 8.475 14.142ZM8.5 10.967C8.68333 10.967 8.85 10.9003 9 10.767C9.15 10.6337 9.25 10.4503 9.3 10.217C9.33333 10.0003 9.425 9.80433 9.575 9.62899C9.725 9.45433 9.98333 9.18366 10.35 8.81699C10.65 8.51699 10.9 8.19199 11.1 7.84199C11.3 7.49199 11.4 7.11699 11.4 6.71699C11.4 5.86699 11.1127 5.22933 10.538 4.80399C9.96267 4.37933 9.28333 4.16699 8.5 4.16699C7.91667 4.16699 7.41267 4.30033 6.988 4.56699C6.56267 4.83366 6.21667 5.16699 5.95 5.56699C5.83333 5.75033 5.81233 5.94199 5.887 6.14199C5.96233 6.34199 6.11667 6.48366 6.35 6.56699C6.51667 6.63366 6.68333 6.63366 6.85 6.56699C7.01667 6.50033 7.16667 6.37533 7.3 6.19199C7.43333 6.00866 7.596 5.85866 7.788 5.74199C7.97933 5.62533 8.21667 5.56699 8.5 5.56699C8.95 5.56699 9.28767 5.69199 9.513 5.94199C9.73767 6.19199 9.85 6.46699 9.85 6.76699C9.85 7.05033 9.76667 7.30433 9.6 7.52899C9.43333 7.75433 9.23333 7.98366 9 8.21699C8.53333 8.61699 8.22067 8.94199 8.062 9.19199C7.904 9.44199 7.80833 9.78366 7.775 10.217C7.75833 10.417 7.821 10.592 7.963 10.742C8.10433 10.892 8.28333 10.967 8.5 10.967Z" fill="#95969D" fill-opacity="0.5"/>
</svg>
