<svg width="16" height="22" viewBox="0 0 16 22" fill="none" xmlns="http://www.w3.org/2000/svg">
<path d="M11.9 6.57324V6.57328C11.9 6.70303 11.8539 6.82891 11.7692 6.92897C11.6854 7.02797 11.569 7.09552 11.4399 7.11979L11.329 7.12949L4.66667 7.12949L4.66649 7.12949C4.52441 7.12975 4.38765 7.07762 4.28308 6.98378C4.17855 6.88997 4.11379 6.76134 4.10108 6.62336C4.08836 6.48539 4.12855 6.34755 4.21407 6.23695C4.29877 6.12741 4.42196 6.05237 4.56 6.02671L4.67103 6.01699H11.3333C11.4841 6.01699 11.6284 6.07597 11.7346 6.18047C11.8407 6.28491 11.9 6.42623 11.9 6.57324ZM11.9 11.167V11.167C11.9 11.2968 11.8539 11.4227 11.7692 11.5227C11.6853 11.6217 11.569 11.6893 11.4399 11.7135L11.329 11.7232H4.66667L4.66649 11.7232C4.52441 11.7235 4.38765 11.6714 4.28308 11.5775C4.17855 11.4837 4.11379 11.3551 4.10108 11.2171C4.08836 11.0791 4.12855 10.9413 4.21407 10.8307C4.29877 10.7212 4.42196 10.6461 4.56001 10.6205L4.67103 10.6107H11.3333C11.4841 10.6107 11.6284 10.6697 11.7346 10.7742C11.8407 10.8787 11.9 11.02 11.9 11.167ZM11.9 15.7607V15.7608C11.9 15.8905 11.8539 16.0164 11.7692 16.1165C11.6853 16.2155 11.569 16.283 11.4399 16.3073L11.329 16.317H4.66667L4.66649 16.317C4.52441 16.3173 4.38765 16.2651 4.28308 16.1713C4.17855 16.0775 4.11379 15.9488 4.10108 15.8109C4.08836 15.6729 4.12855 15.535 4.21407 15.4244C4.29877 15.3149 4.42196 15.2399 4.56001 15.2142L4.67103 15.2045H11.3333C11.4841 15.2045 11.6284 15.2635 11.7346 15.368C11.8407 15.4724 11.9 15.6137 11.9 15.7607ZM2.66667 0.766992H13.3333C14.0146 0.766992 14.6676 1.03339 15.1488 1.5071C15.63 1.98076 15.9 2.62283 15.9 3.29199V19.042C15.9 19.7112 15.63 20.3532 15.1488 20.8269C14.6676 21.3006 14.0146 21.567 13.3333 21.567H2.66667C1.98544 21.567 1.33243 21.3006 0.8512 20.8269C0.370027 20.3532 0.1 19.7112 0.1 19.042V3.29199C0.1 2.62283 0.370027 1.98076 0.8512 1.5071C1.33243 1.03339 1.98544 0.766992 2.66667 0.766992ZM2.66667 1.87949C2.28703 1.87949 1.92262 2.02793 1.65371 2.29265C1.38473 2.55742 1.23333 2.91686 1.23333 3.29199V19.042C1.23333 19.4171 1.38473 19.7766 1.65371 20.0413C1.92263 20.3061 2.28703 20.4545 2.66667 20.4545H13.3333C13.713 20.4545 14.0774 20.3061 14.3463 20.0413C14.6153 19.7766 14.7667 19.4171 14.7667 19.042V3.29199C14.7667 2.91686 14.6153 2.55742 14.3463 2.29265C14.0774 2.02793 13.713 1.87949 13.3333 1.87949H2.66667Z" fill="#95969D" stroke="white" stroke-width="0.2"/>
</svg>
