<svg width="16" height="22" viewBox="0 0 16 22" fill="none" xmlns="http://www.w3.org/2000/svg">
<mask id="path-1-inside-1_276_2209" fill="white">
<path d="M6.66667 9.19824C6.66667 9.02419 6.7369 8.85727 6.86193 8.7342C6.98695 8.61113 7.15652 8.54199 7.33333 8.54199H12C12.1768 8.54199 12.3464 8.61113 12.4714 8.7342C12.5964 8.85727 12.6667 9.02419 12.6667 9.19824C12.6667 9.37229 12.5964 9.53921 12.4714 9.66228C12.3464 9.78535 12.1768 9.85449 12 9.85449H7.33333C7.15652 9.85449 6.98695 9.78535 6.86193 9.66228C6.7369 9.53921 6.66667 9.37229 6.66667 9.19824ZM6.66667 13.1357C6.66667 12.9617 6.7369 12.7948 6.86193 12.6717C6.98695 12.5486 7.15652 12.4795 7.33333 12.4795H12C12.1768 12.4795 12.3464 12.5486 12.4714 12.6717C12.5964 12.7948 12.6667 12.9617 12.6667 13.1357C12.6667 13.3098 12.5964 13.4767 12.4714 13.5998C12.3464 13.7229 12.1768 13.792 12 13.792H7.33333C7.15652 13.792 6.98695 13.7229 6.86193 13.5998C6.7369 13.4767 6.66667 13.3098 6.66667 13.1357ZM6.66667 17.0732C6.66667 16.8992 6.7369 16.7323 6.86193 16.6092C6.98695 16.4861 7.15652 16.417 7.33333 16.417H12C12.1768 16.417 12.3464 16.4861 12.4714 16.6092C12.5964 16.7323 12.6667 16.8992 12.6667 17.0732C12.6667 17.2473 12.5964 17.4142 12.4714 17.5373C12.3464 17.6604 12.1768 17.7295 12 17.7295H7.33333C7.15652 17.7295 6.98695 17.6604 6.86193 17.5373C6.7369 17.4142 6.66667 17.2473 6.66667 17.0732ZM5.33333 9.19824C5.33333 9.45931 5.22798 9.70969 5.04044 9.8943C4.8529 10.0789 4.59855 10.1826 4.33333 10.1826C4.06812 10.1826 3.81376 10.0789 3.62623 9.8943C3.43869 9.70969 3.33333 9.45931 3.33333 9.19824C3.33333 8.93717 3.43869 8.68679 3.62623 8.50218C3.81376 8.31758 4.06812 8.21387 4.33333 8.21387C4.59855 8.21387 4.8529 8.31758 5.04044 8.50218C5.22798 8.68679 5.33333 8.93717 5.33333 9.19824ZM5.33333 13.1357C5.33333 13.3968 5.22798 13.6472 5.04044 13.8318C4.8529 14.0164 4.59855 14.1201 4.33333 14.1201C4.06812 14.1201 3.81376 14.0164 3.62623 13.8318C3.43869 13.6472 3.33333 13.3968 3.33333 13.1357C3.33333 12.8747 3.43869 12.6243 3.62623 12.4397C3.81376 12.2551 4.06812 12.1514 4.33333 12.1514C4.59855 12.1514 4.8529 12.2551 5.04044 12.4397C5.22798 12.6243 5.33333 12.8747 5.33333 13.1357ZM4.33333 18.0576C4.59855 18.0576 4.8529 17.9539 5.04044 17.7693C5.22798 17.5847 5.33333 17.3343 5.33333 17.0732C5.33333 16.8122 5.22798 16.5618 5.04044 16.3772C4.8529 16.1926 4.59855 16.0889 4.33333 16.0889C4.06812 16.0889 3.81376 16.1926 3.62623 16.3772C3.43869 16.5618 3.33333 16.8122 3.33333 17.0732C3.33333 17.3343 3.43869 17.5847 3.62623 17.7693C3.81376 17.9539 4.06812 18.0576 4.33333 18.0576ZM4.11333 1.97949C4.25126 1.59548 4.50678 1.26304 4.84468 1.02797C5.18258 0.792897 5.58623 0.666779 6 0.666992H10C10.4138 0.666779 10.8174 0.792897 11.1553 1.02797C11.4932 1.26304 11.7487 1.59548 11.8867 1.97949H14C14.5304 1.97949 15.0391 2.18691 15.4142 2.55613C15.7893 2.92534 16 3.4261 16 3.94824V19.6982C16 20.2204 15.7893 20.7211 15.4142 21.0904C15.0391 21.4596 14.5304 21.667 14 21.667H2C1.46957 21.667 0.960859 21.4596 0.585786 21.0904C0.210713 20.7211 0 20.2204 0 19.6982V3.94824C0 3.4261 0.210713 2.92534 0.585786 2.55613C0.960859 2.18691 1.46957 1.97949 2 1.97949H4.11333ZM6 1.97949C5.82319 1.97949 5.65362 2.04863 5.52859 2.1717C5.40357 2.29477 5.33333 2.46169 5.33333 2.63574C5.33333 2.80979 5.40357 2.97671 5.52859 3.09978C5.65362 3.22285 5.82319 3.29199 6 3.29199H10C10.1768 3.29199 10.3464 3.22285 10.4714 3.09978C10.5964 2.97671 10.6667 2.80979 10.6667 2.63574C10.6667 2.46169 10.5964 2.29477 10.4714 2.1717C10.3464 2.04863 10.1768 1.97949 10 1.97949H6ZM4.11333 3.29199H2C1.82319 3.29199 1.65362 3.36113 1.5286 3.4842C1.40357 3.60727 1.33333 3.77419 1.33333 3.94824V19.6982C1.33333 19.8723 1.40357 20.0392 1.5286 20.1623C1.65362 20.2854 1.82319 20.3545 2 20.3545H14C14.1768 20.3545 14.3464 20.2854 14.4714 20.1623C14.5964 20.0392 14.6667 19.8723 14.6667 19.6982V3.94824C14.6667 3.77419 14.5964 3.60727 14.4714 3.4842C14.3464 3.36113 14.1768 3.29199 14 3.29199H11.8867C11.7487 3.676 11.4932 4.00845 11.1553 4.24352C10.8174 4.47859 10.4138 4.60471 10 4.60449H6C5.58623 4.60471 5.18258 4.47859 4.84468 4.24352C4.50678 4.00845 4.25126 3.676 4.11333 3.29199Z"/>
</mask>
<path d="M6.66667 9.19824C6.66667 9.02419 6.7369 8.85727 6.86193 8.7342C6.98695 8.61113 7.15652 8.54199 7.33333 8.54199H12C12.1768 8.54199 12.3464 8.61113 12.4714 8.7342C12.5964 8.85727 12.6667 9.02419 12.6667 9.19824C12.6667 9.37229 12.5964 9.53921 12.4714 9.66228C12.3464 9.78535 12.1768 9.85449 12 9.85449H7.33333C7.15652 9.85449 6.98695 9.78535 6.86193 9.66228C6.7369 9.53921 6.66667 9.37229 6.66667 9.19824ZM6.66667 13.1357C6.66667 12.9617 6.7369 12.7948 6.86193 12.6717C6.98695 12.5486 7.15652 12.4795 7.33333 12.4795H12C12.1768 12.4795 12.3464 12.5486 12.4714 12.6717C12.5964 12.7948 12.6667 12.9617 12.6667 13.1357C12.6667 13.3098 12.5964 13.4767 12.4714 13.5998C12.3464 13.7229 12.1768 13.792 12 13.792H7.33333C7.15652 13.792 6.98695 13.7229 6.86193 13.5998C6.7369 13.4767 6.66667 13.3098 6.66667 13.1357ZM6.66667 17.0732C6.66667 16.8992 6.7369 16.7323 6.86193 16.6092C6.98695 16.4861 7.15652 16.417 7.33333 16.417H12C12.1768 16.417 12.3464 16.4861 12.4714 16.6092C12.5964 16.7323 12.6667 16.8992 12.6667 17.0732C12.6667 17.2473 12.5964 17.4142 12.4714 17.5373C12.3464 17.6604 12.1768 17.7295 12 17.7295H7.33333C7.15652 17.7295 6.98695 17.6604 6.86193 17.5373C6.7369 17.4142 6.66667 17.2473 6.66667 17.0732ZM5.33333 9.19824C5.33333 9.45931 5.22798 9.70969 5.04044 9.8943C4.8529 10.0789 4.59855 10.1826 4.33333 10.1826C4.06812 10.1826 3.81376 10.0789 3.62623 9.8943C3.43869 9.70969 3.33333 9.45931 3.33333 9.19824C3.33333 8.93717 3.43869 8.68679 3.62623 8.50218C3.81376 8.31758 4.06812 8.21387 4.33333 8.21387C4.59855 8.21387 4.8529 8.31758 5.04044 8.50218C5.22798 8.68679 5.33333 8.93717 5.33333 9.19824ZM5.33333 13.1357C5.33333 13.3968 5.22798 13.6472 5.04044 13.8318C4.8529 14.0164 4.59855 14.1201 4.33333 14.1201C4.06812 14.1201 3.81376 14.0164 3.62623 13.8318C3.43869 13.6472 3.33333 13.3968 3.33333 13.1357C3.33333 12.8747 3.43869 12.6243 3.62623 12.4397C3.81376 12.2551 4.06812 12.1514 4.33333 12.1514C4.59855 12.1514 4.8529 12.2551 5.04044 12.4397C5.22798 12.6243 5.33333 12.8747 5.33333 13.1357ZM4.33333 18.0576C4.59855 18.0576 4.8529 17.9539 5.04044 17.7693C5.22798 17.5847 5.33333 17.3343 5.33333 17.0732C5.33333 16.8122 5.22798 16.5618 5.04044 16.3772C4.8529 16.1926 4.59855 16.0889 4.33333 16.0889C4.06812 16.0889 3.81376 16.1926 3.62623 16.3772C3.43869 16.5618 3.33333 16.8122 3.33333 17.0732C3.33333 17.3343 3.43869 17.5847 3.62623 17.7693C3.81376 17.9539 4.06812 18.0576 4.33333 18.0576ZM4.11333 1.97949C4.25126 1.59548 4.50678 1.26304 4.84468 1.02797C5.18258 0.792897 5.58623 0.666779 6 0.666992H10C10.4138 0.666779 10.8174 0.792897 11.1553 1.02797C11.4932 1.26304 11.7487 1.59548 11.8867 1.97949H14C14.5304 1.97949 15.0391 2.18691 15.4142 2.55613C15.7893 2.92534 16 3.4261 16 3.94824V19.6982C16 20.2204 15.7893 20.7211 15.4142 21.0904C15.0391 21.4596 14.5304 21.667 14 21.667H2C1.46957 21.667 0.960859 21.4596 0.585786 21.0904C0.210713 20.7211 0 20.2204 0 19.6982V3.94824C0 3.4261 0.210713 2.92534 0.585786 2.55613C0.960859 2.18691 1.46957 1.97949 2 1.97949H4.11333ZM6 1.97949C5.82319 1.97949 5.65362 2.04863 5.52859 2.1717C5.40357 2.29477 5.33333 2.46169 5.33333 2.63574C5.33333 2.80979 5.40357 2.97671 5.52859 3.09978C5.65362 3.22285 5.82319 3.29199 6 3.29199H10C10.1768 3.29199 10.3464 3.22285 10.4714 3.09978C10.5964 2.97671 10.6667 2.80979 10.6667 2.63574C10.6667 2.46169 10.5964 2.29477 10.4714 2.1717C10.3464 2.04863 10.1768 1.97949 10 1.97949H6ZM4.11333 3.29199H2C1.82319 3.29199 1.65362 3.36113 1.5286 3.4842C1.40357 3.60727 1.33333 3.77419 1.33333 3.94824V19.6982C1.33333 19.8723 1.40357 20.0392 1.5286 20.1623C1.65362 20.2854 1.82319 20.3545 2 20.3545H14C14.1768 20.3545 14.3464 20.2854 14.4714 20.1623C14.5964 20.0392 14.6667 19.8723 14.6667 19.6982V3.94824C14.6667 3.77419 14.5964 3.60727 14.4714 3.4842C14.3464 3.36113 14.1768 3.29199 14 3.29199H11.8867C11.7487 3.676 11.4932 4.00845 11.1553 4.24352C10.8174 4.47859 10.4138 4.60471 10 4.60449H6C5.58623 4.60471 5.18258 4.47859 4.84468 4.24352C4.50678 4.00845 4.25126 3.676 4.11333 3.29199Z" fill="#95969D" stroke="white" stroke-width="0.4" mask="url(#path-1-inside-1_276_2209)"/>
</svg>
