<svg width="24" height="25" viewBox="0 0 24 25" fill="none" xmlns="http://www.w3.org/2000/svg">
<path d="M21.3333 3.33366H18.6667V0.666992H5.33333V3.33366H2.66667C1.2 3.33366 0 4.53366 0 6.00033V7.33366C0 10.7337 2.56 13.507 5.85333 13.9203C6.69333 15.9203 8.49333 17.427 10.6667 17.867V22.0003H5.33333V24.667H18.6667V22.0003H13.3333V17.867C15.5067 17.427 17.3067 15.9203 18.1467 13.9203C21.44 13.507 24 10.7337 24 7.33366V6.00033C24 4.53366 22.8 3.33366 21.3333 3.33366ZM2.66667 7.33366V6.00033H5.33333V11.0937C3.78667 10.5337 2.66667 9.06699 2.66667 7.33366ZM21.3333 7.33366C21.3333 9.06699 20.2133 10.5337 18.6667 11.0937V6.00033H21.3333V7.33366Z" fill="#95969D" fill-opacity="0.5"/>
</svg>
