<svg width="24" height="24" viewBox="0 0 24 24" fill="none" xmlns="http://www.w3.org/2000/svg">
<path fill-rule="evenodd" clip-rule="evenodd" d="M20.7301 0.000943347H3.3197C2.46674 -0.0196202 1.64003 0.296705 1.01866 0.881389C0.397297 1.46607 0.0313133 2.27203 0 3.12466V20.875C0.0281662 21.7189 0.38543 22.5181 0.995365 23.1019C1.6053 23.6857 2.41947 24.0076 3.2637 23.9988H7.6633C8.10326 22.1829 10.2471 21.131 12.5189 20.2031C14.2147 19.4832 14.4747 18.8672 14.4747 18.1473C14.4747 17.4274 13.9587 16.7594 13.3948 16.2435C12.8839 15.7977 12.4799 15.2427 12.2127 14.6196C11.9454 13.9964 11.8218 13.3212 11.8509 12.6438C11.8509 9.96804 13.5988 7.60425 16.6505 7.60425C19.7022 7.60425 21.45 9.92004 21.45 12.6438C21.457 13.3181 21.3233 13.9866 21.0575 14.6063C20.7917 15.2261 20.3996 15.7837 19.9062 16.2435C19.3422 16.8074 18.8263 17.4434 18.8263 18.1473C18.8263 18.8512 19.0303 19.4832 20.7821 20.2031C21.8713 20.6139 22.9142 21.1381 23.8938 21.767C23.9744 21.4768 24.0095 21.1759 23.9978 20.875V3.12466C24.0538 1.42481 22.5659 0.000943347 20.7301 0.000943347ZM11.043 5.34046C11.033 5.62967 10.9133 5.90424 10.7083 6.1085C10.5033 6.31275 10.2283 6.43139 9.93909 6.44036H4.31161C4.02096 6.43339 3.74396 6.31563 3.53727 6.11118C3.33058 5.90672 3.20983 5.63101 3.19971 5.34046V4.24056C3.20972 3.95135 3.32936 3.67677 3.53436 3.47252C3.73935 3.26826 4.01436 3.14962 4.30361 3.14066H9.93909C10.2283 3.14962 10.5033 3.26826 10.7083 3.47252C10.9133 3.67677 11.033 3.95135 11.043 4.24056V5.34046Z" fill="#CACBCE"/>
</svg>
