<svg width="18" height="21" viewBox="0 0 18 21" fill="none" xmlns="http://www.w3.org/2000/svg">
<path d="M15 14.747C14.24 14.747 13.56 15.047 13.04 15.517L5.91 11.367C5.96 11.137 6 10.907 6 10.667C6 10.427 5.96 10.197 5.91 9.96699L12.96 5.85699C13.5 6.35699 14.21 6.66699 15 6.66699C16.66 6.66699 18 5.32699 18 3.66699C18 2.00699 16.66 0.666992 15 0.666992C13.34 0.666992 12 2.00699 12 3.66699C12 3.90699 12.04 4.13699 12.09 4.36699L5.04 8.47699C4.5 7.97699 3.79 7.66699 3 7.66699C1.34 7.66699 0 9.00699 0 10.667C0 12.327 1.34 13.667 3 13.667C3.79 13.667 4.5 13.357 5.04 12.857L12.16 17.017C12.11 17.227 12.08 17.447 12.08 17.667C12.08 19.277 13.39 20.587 15 20.587C16.61 20.587 17.92 19.277 17.92 17.667C17.92 16.057 16.61 14.747 15 14.747Z" fill="#95969D" fill-opacity="0.5"/>
</svg>
