<svg width="53" height="38" viewBox="0 0 53 38" fill="none" xmlns="http://www.w3.org/2000/svg">
<rect width="53" height="38" rx="6" fill="#356899"/>
<path d="M27 31C26.5143 31 26.1074 30.8354 25.7794 30.5063C25.4503 30.1783 25.2857 29.7714 25.2857 29.2857V20.7143H16.7143C16.2286 20.7143 15.8211 20.5497 15.492 20.2206C15.164 19.8926 15 19.4857 15 19C15 18.5143 15.164 18.1069 15.492 17.7777C15.8211 17.4497 16.2286 17.2857 16.7143 17.2857H25.2857V8.71429C25.2857 8.22857 25.4503 7.82114 25.7794 7.492C26.1074 7.164 26.5143 7 27 7C27.4857 7 27.8931 7.164 28.2223 7.492C28.5503 7.82114 28.7143 8.22857 28.7143 8.71429V17.2857H37.2857C37.7714 17.2857 38.1783 17.4497 38.5063 17.7777C38.8354 18.1069 39 18.5143 39 19C39 19.4857 38.8354 19.8926 38.5063 20.2206C38.1783 20.5497 37.7714 20.7143 37.2857 20.7143H28.7143V29.2857C28.7143 29.7714 28.5503 30.1783 28.2223 30.5063C27.8931 30.8354 27.4857 31 27 31Z" fill="white"/>
</svg>
