<svg width="26" height="26" viewBox="0 0 26 26" fill="none" xmlns="http://www.w3.org/2000/svg">
<path d="M8.57984 14.592C10.1073 14.592 11.3315 15.8281 11.3315 17.3664V21.0595C11.3315 22.587 10.1073 23.8328 8.57984 23.8328H4.91817C3.4015 23.8328 2.1665 22.587 2.1665 21.0595V17.3664C2.1665 15.8281 3.4015 14.592 4.91817 14.592H8.57984ZM21.0816 14.592C22.5983 14.592 23.8333 15.8281 23.8333 17.3664V21.0595C23.8333 22.587 22.5983 23.8328 21.0816 23.8328H17.4199C15.8924 23.8328 14.6683 22.587 14.6683 21.0595V17.3664C14.6683 15.8281 15.8924 14.592 17.4199 14.592H21.0816ZM8.57984 2.1665C10.1073 2.1665 11.3315 3.41234 11.3315 4.94092V8.634C11.3315 10.1723 10.1073 11.4073 8.57984 11.4073H4.91817C3.4015 11.4073 2.1665 10.1723 2.1665 8.634V4.94092C2.1665 3.41234 3.4015 2.1665 4.91817 2.1665H8.57984ZM21.0816 2.1665C22.5983 2.1665 23.8333 3.41234 23.8333 4.94092V8.634C23.8333 10.1723 22.5983 11.4073 21.0816 11.4073H17.4199C15.8924 11.4073 14.6683 10.1723 14.6683 8.634V4.94092C14.6683 3.41234 15.8924 2.1665 17.4199 2.1665H21.0816Z" fill="#CACBCE"/>
</svg>
