<svg width="24" height="24" viewBox="0 0 24 24" fill="none" xmlns="http://www.w3.org/2000/svg">
<path d="M12 0.625C5.71836 0.625 0.625 5.71836 0.625 12C0.625 18.2816 5.71836 23.375 12 23.375C18.2816 23.375 23.375 18.2816 23.375 12C23.375 5.71836 18.2816 0.625 12 0.625ZM15.6588 12.1752L10.1135 16.2098C10.0831 16.2316 10.0472 16.2447 10.0099 16.2475C9.97258 16.2503 9.9352 16.2427 9.90187 16.2257C9.86855 16.2086 9.84057 16.1827 9.82101 16.1508C9.80146 16.1189 9.79108 16.0822 9.79102 16.0447V7.98066C9.79089 7.94315 9.80116 7.90634 9.82068 7.87431C9.84019 7.84227 9.8682 7.81627 9.90159 7.79918C9.93499 7.78209 9.97246 7.77458 10.0099 7.77748C10.0473 7.78038 10.0831 7.79359 10.1135 7.81563L15.6588 11.8477C15.685 11.8662 15.7064 11.8907 15.7211 11.9192C15.7359 11.9477 15.7436 11.9793 15.7436 12.0114C15.7436 12.0435 15.7359 12.0751 15.7211 12.1036C15.7064 12.1321 15.685 12.1567 15.6588 12.1752Z" fill="#CACBCE"/>
</svg>
