<svg width="26" height="18" viewBox="0 0 26 18" fill="none" xmlns="http://www.w3.org/2000/svg">
<path d="M21.8978 10.1023C21.4067 9.92898 20.8578 10.0734 20.5689 10.449L19.0956 12.4712C19.0089 12.5868 18.8644 12.5868 18.7778 12.4712L17.3044 10.449C17.0156 10.0734 16.4667 9.92898 15.9756 10.1023C15.3978 10.3045 14.9067 10.5068 14.4733 10.709C14.2711 10.7956 14.2711 11.0845 14.4733 11.2001C16.2356 12.2112 17.1311 13.309 17.4489 15.2734C17.4778 15.4179 17.5933 15.5045 17.7089 15.5045H25.3067C25.6822 15.5045 26 15.2445 26 14.9268C26 12.1245 24.9311 11.2001 21.8978 10.1023ZM17.68 1.17564C14.3867 1.26231 14.4444 4.9312 15.6578 7.15564C15.8311 7.47342 16.12 7.82009 16.4089 8.0512C16.64 8.22453 16.9289 8.3112 17.2178 8.3112C17.2756 8.3112 17.3333 8.28231 17.3622 8.25342C17.7378 8.65786 18.2867 9.0912 18.9511 9.0912H18.98C19.5289 9.0912 20.0778 8.80231 20.5689 8.25342C20.5978 8.28231 20.6556 8.28231 20.7133 8.28231C20.9733 8.28231 21.2044 8.22453 21.4356 8.08009C21.7244 7.87786 21.9844 7.56009 22.1867 7.32898C24.4978 4.35342 22.1289 -1.71325 17.68 1.17564ZM21.4356 4.00675C21.5222 4.6712 21.2622 5.82675 20.8867 6.92453C20.3667 7.93564 19.5867 8.5712 19.0089 8.51342C17.8822 8.42675 17.16 7.0112 17.16 6.98231C16.8133 5.9712 16.5244 4.96009 16.5244 4.64231C16.5244 4.58453 16.5822 4.52675 16.64 4.49786C17.6222 4.1512 18.2289 3.25564 18.4311 2.88009C18.4889 2.79342 18.6044 2.76453 18.6622 2.8512C19.2978 3.54453 20.8867 3.80453 21.32 3.8912C21.3778 3.86231 21.4356 3.92009 21.4356 4.00675ZM12.4222 11.5179C11.96 11.3156 11.4111 11.489 11.1222 11.9223L9.53333 14.4356C9.47556 14.5223 9.33111 14.5223 9.30222 14.4068L8.63778 12.2112C8.60889 12.1245 8.63778 12.009 8.69555 11.9512L9.18667 11.4601C9.30222 11.3734 9.21556 11.1712 9.07111 11.1712H7.33778C7.19333 11.1712 7.10667 11.3445 7.22222 11.4601L7.71333 11.9512C7.77111 12.009 7.8 12.1245 7.77111 12.2112L7.10667 14.4068C7.07778 14.5223 6.93333 14.5223 6.87556 14.4356L5.28667 11.9223C4.99778 11.489 4.47778 11.3156 3.98667 11.5179C1.04 12.7312 0 13.8001 0 16.9201C0 17.2956 0.288889 17.5845 0.664444 17.5845H15.7444C16.12 17.5845 16.4089 17.2956 16.4089 16.9201C16.4089 13.8001 15.34 12.7312 12.4222 11.5179ZM8.20444 10.2179C12.0756 10.2179 14.0978 1.40675 8.20444 1.32009C2.31111 1.43564 4.33333 10.2179 8.20444 10.2179Z" fill="#CACBCE"/>
</svg>
