<svg width="26" height="26" viewBox="0 0 26 26" fill="none" xmlns="http://www.w3.org/2000/svg">
<circle cx="11" cy="23.792" r="2" fill="#356899"/>
<path d="M21.8978 9.89381C21.4067 9.72048 20.8578 9.86492 20.5689 10.2405L19.0956 12.2627C19.0089 12.3783 18.8644 12.3783 18.7778 12.2627L17.3044 10.2405C17.0156 9.86492 16.4667 9.72048 15.9756 9.89381C15.3978 10.096 14.9067 10.2983 14.4733 10.5005C14.2711 10.5871 14.2711 10.876 14.4733 10.9916C16.2356 12.0027 17.1311 13.1005 17.4489 15.0649C17.4778 15.2094 17.5933 15.296 17.7089 15.296H25.3067C25.6822 15.296 26 15.036 26 14.7183C26 11.916 24.9311 10.9916 21.8978 9.89381ZM17.68 0.967145C14.3867 1.05381 14.4444 4.7227 15.6578 6.94714C15.8311 7.26492 16.12 7.61159 16.4089 7.8427C16.64 8.01603 16.9289 8.1027 17.2178 8.1027C17.2756 8.1027 17.3333 8.07381 17.3622 8.04492C17.7378 8.44937 18.2867 8.8827 18.9511 8.8827H18.98C19.5289 8.8827 20.0778 8.59381 20.5689 8.04492C20.5978 8.07381 20.6556 8.07381 20.7133 8.07381C20.9733 8.07381 21.2044 8.01603 21.4356 7.87159C21.7244 7.66937 21.9844 7.35159 22.1867 7.12048C24.4978 4.14492 22.1289 -1.92174 17.68 0.967145ZM21.4356 3.79826C21.5222 4.4627 21.2622 5.61826 20.8867 6.71603C20.3667 7.72715 19.5867 8.3627 19.0089 8.30492C17.8822 8.21826 17.16 6.8027 17.16 6.77381C16.8133 5.7627 16.5244 4.75159 16.5244 4.43381C16.5244 4.37603 16.5822 4.31826 16.64 4.28937C17.6222 3.9427 18.2289 3.04714 18.4311 2.67159C18.4889 2.58492 18.6044 2.55603 18.6622 2.6427C19.2978 3.33603 20.8867 3.59603 21.32 3.6827C21.3778 3.65381 21.4356 3.71159 21.4356 3.79826ZM12.4222 11.3094C11.96 11.1071 11.4111 11.2805 11.1222 11.7138L9.53333 14.2271C9.47556 14.3138 9.33111 14.3138 9.30222 14.1983L8.63778 12.0027C8.60889 11.916 8.63778 11.8005 8.69555 11.7427L9.18667 11.2516C9.30222 11.1649 9.21556 10.9627 9.07111 10.9627H7.33778C7.19333 10.9627 7.10667 11.136 7.22222 11.2516L7.71333 11.7427C7.77111 11.8005 7.8 11.916 7.77111 12.0027L7.10667 14.1983C7.07778 14.3138 6.93333 14.3138 6.87556 14.2271L5.28667 11.7138C4.99778 11.2805 4.47778 11.1071 3.98667 11.3094C1.04 12.5227 0 13.5916 0 16.7116C0 17.0871 0.288889 17.376 0.664444 17.376H15.7444C16.12 17.376 16.4089 17.0871 16.4089 16.7116C16.4089 13.5916 15.34 12.5227 12.4222 11.3094ZM8.20444 10.0094C12.0756 10.0094 14.0978 1.19826 8.20444 1.11159C2.31111 1.22714 4.33333 10.0094 8.20444 10.0094Z" fill="#356899"/>
</svg>
