<svg width="23" height="28" viewBox="0 0 23 28" fill="none" xmlns="http://www.w3.org/2000/svg">
<path d="M11.375 0C5.09336 0 0 5.09336 0 11.375C0 17.6566 5.09336 22.75 11.375 22.75C17.6566 22.75 22.75 17.6566 22.75 11.375C22.75 5.09336 17.6566 0 11.375 0ZM15.0338 11.5502L9.48848 15.5848C9.45808 15.6066 9.42224 15.6197 9.38491 15.6225C9.34758 15.6253 9.3102 15.6177 9.27687 15.6007C9.24355 15.5836 9.21557 15.5577 9.19601 15.5258C9.17645 15.4939 9.16608 15.4572 9.16602 15.4197V7.35566C9.16589 7.31815 9.17616 7.28134 9.19568 7.24931C9.2152 7.21727 9.2432 7.19127 9.27659 7.17418C9.30999 7.15709 9.34746 7.14958 9.38486 7.15248C9.42226 7.15538 9.45812 7.16859 9.48848 7.19063L15.0338 11.2227C15.06 11.2412 15.0814 11.2657 15.0961 11.2942C15.1109 11.3227 15.1186 11.3543 15.1186 11.3864C15.1186 11.4185 15.1109 11.4501 15.0961 11.4786C15.0814 11.5071 15.06 11.5317 15.0338 11.5502V11.5502Z" fill="#356899"/>
<circle cx="11" cy="26" r="2" fill="#356899"/>
</svg>
