<svg width="26" height="26" viewBox="0 0 26 26" fill="none" xmlns="http://www.w3.org/2000/svg">
<path d="M13 2.625C6.71836 2.625 1.625 7.71836 1.625 14C1.625 20.2816 6.71836 25.375 13 25.375C19.2816 25.375 24.375 20.2816 24.375 14C24.375 7.71836 19.2816 2.625 13 2.625ZM16.6588 14.1752L11.1135 18.2098C11.0831 18.2316 11.0472 18.2447 11.0099 18.2475C10.9726 18.2503 10.9352 18.2427 10.9019 18.2257C10.8685 18.2086 10.8406 18.1827 10.821 18.1508C10.8015 18.1189 10.7911 18.0822 10.791 18.0447V9.98066C10.7909 9.94315 10.8012 9.90634 10.8207 9.87431C10.8402 9.84227 10.8682 9.81627 10.9016 9.79918C10.935 9.78209 10.9725 9.77458 11.0099 9.77748C11.0473 9.78038 11.0831 9.79359 11.1135 9.81563L16.6588 13.8477C16.685 13.8662 16.7064 13.8907 16.7211 13.9192C16.7359 13.9477 16.7436 13.9793 16.7436 14.0114C16.7436 14.0435 16.7359 14.0751 16.7211 14.1036C16.7064 14.1321 16.685 14.1567 16.6588 14.1752Z" fill="#CACBCE"/>
</svg>
