<svg width="16" height="22" viewBox="0 0 16 22" fill="none" xmlns="http://www.w3.org/2000/svg">
<path d="M6.66667 9.03125C6.66667 8.8572 6.7369 8.69028 6.86193 8.56721C6.98695 8.44414 7.15652 8.375 7.33333 8.375H12C12.1768 8.375 12.3464 8.44414 12.4714 8.56721C12.5964 8.69028 12.6667 8.8572 12.6667 9.03125C12.6667 9.2053 12.5964 9.37222 12.4714 9.49529C12.3464 9.61836 12.1768 9.6875 12 9.6875H7.33333C7.15652 9.6875 6.98695 9.61836 6.86193 9.49529C6.7369 9.37222 6.66667 9.2053 6.66667 9.03125ZM6.66667 12.9688C6.66667 12.7947 6.7369 12.6278 6.86193 12.5047C6.98695 12.3816 7.15652 12.3125 7.33333 12.3125H12C12.1768 12.3125 12.3464 12.3816 12.4714 12.5047C12.5964 12.6278 12.6667 12.7947 12.6667 12.9688C12.6667 13.1428 12.5964 13.3097 12.4714 13.4328C12.3464 13.5559 12.1768 13.625 12 13.625H7.33333C7.15652 13.625 6.98695 13.5559 6.86193 13.4328C6.7369 13.3097 6.66667 13.1428 6.66667 12.9688ZM6.66667 16.9062C6.66667 16.7322 6.7369 16.5653 6.86193 16.4422C6.98695 16.3191 7.15652 16.25 7.33333 16.25H12C12.1768 16.25 12.3464 16.3191 12.4714 16.4422C12.5964 16.5653 12.6667 16.7322 12.6667 16.9062C12.6667 17.0803 12.5964 17.2472 12.4714 17.3703C12.3464 17.4934 12.1768 17.5625 12 17.5625H7.33333C7.15652 17.5625 6.98695 17.4934 6.86193 17.3703C6.7369 17.2472 6.66667 17.0803 6.66667 16.9062ZM5.33333 9.03125C5.33333 9.29232 5.22798 9.5427 5.04044 9.72731C4.8529 9.91191 4.59855 10.0156 4.33333 10.0156C4.06812 10.0156 3.81376 9.91191 3.62623 9.72731C3.43869 9.5427 3.33333 9.29232 3.33333 9.03125C3.33333 8.77018 3.43869 8.5198 3.62623 8.33519C3.81376 8.15059 4.06812 8.04688 4.33333 8.04688C4.59855 8.04688 4.8529 8.15059 5.04044 8.33519C5.22798 8.5198 5.33333 8.77018 5.33333 9.03125ZM5.33333 12.9688C5.33333 13.2298 5.22798 13.4802 5.04044 13.6648C4.8529 13.8494 4.59855 13.9531 4.33333 13.9531C4.06812 13.9531 3.81376 13.8494 3.62623 13.6648C3.43869 13.4802 3.33333 13.2298 3.33333 12.9688C3.33333 12.7077 3.43869 12.4573 3.62623 12.2727C3.81376 12.0881 4.06812 11.9844 4.33333 11.9844C4.59855 11.9844 4.8529 12.0881 5.04044 12.2727C5.22798 12.4573 5.33333 12.7077 5.33333 12.9688ZM4.33333 17.8906C4.59855 17.8906 4.8529 17.7869 5.04044 17.6023C5.22798 17.4177 5.33333 17.1673 5.33333 16.9062C5.33333 16.6452 5.22798 16.3948 5.04044 16.2102C4.8529 16.0256 4.59855 15.9219 4.33333 15.9219C4.06812 15.9219 3.81376 16.0256 3.62623 16.2102C3.43869 16.3948 3.33333 16.6452 3.33333 16.9062C3.33333 17.1673 3.43869 17.4177 3.62623 17.6023C3.81376 17.7869 4.06812 17.8906 4.33333 17.8906ZM4.11333 1.8125C4.25126 1.42849 4.50678 1.09604 4.84468 0.860975C5.18258 0.625905 5.58623 0.499787 6 0.5H10C10.4138 0.499787 10.8174 0.625905 11.1553 0.860975C11.4932 1.09604 11.7487 1.42849 11.8867 1.8125H14C14.5304 1.8125 15.0391 2.01992 15.4142 2.38913C15.7893 2.75835 16 3.25911 16 3.78125V19.5312C16 20.0534 15.7893 20.5542 15.4142 20.9234C15.0391 21.2926 14.5304 21.5 14 21.5H2C1.46957 21.5 0.960859 21.2926 0.585786 20.9234C0.210713 20.5542 0 20.0534 0 19.5312V3.78125C0 3.25911 0.210713 2.75835 0.585786 2.38913C0.960859 2.01992 1.46957 1.8125 2 1.8125H4.11333ZM6 1.8125C5.82319 1.8125 5.65362 1.88164 5.52859 2.00471C5.40357 2.12778 5.33333 2.2947 5.33333 2.46875C5.33333 2.6428 5.40357 2.80972 5.52859 2.93279C5.65362 3.05586 5.82319 3.125 6 3.125H10C10.1768 3.125 10.3464 3.05586 10.4714 2.93279C10.5964 2.80972 10.6667 2.6428 10.6667 2.46875C10.6667 2.2947 10.5964 2.12778 10.4714 2.00471C10.3464 1.88164 10.1768 1.8125 10 1.8125H6ZM4.11333 3.125H2C1.82319 3.125 1.65362 3.19414 1.5286 3.31721C1.40357 3.44028 1.33333 3.6072 1.33333 3.78125V19.5312C1.33333 19.7053 1.40357 19.8722 1.5286 19.9953C1.65362 20.1184 1.82319 20.1875 2 20.1875H14C14.1768 20.1875 14.3464 20.1184 14.4714 19.9953C14.5964 19.8722 14.6667 19.7053 14.6667 19.5312V3.78125C14.6667 3.6072 14.5964 3.44028 14.4714 3.31721C14.3464 3.19414 14.1768 3.125 14 3.125H11.8867C11.7487 3.50901 11.4932 3.84146 11.1553 4.07653C10.8174 4.31159 10.4138 4.43771 10 4.4375H6C5.58623 4.43771 5.18258 4.31159 4.84468 4.07653C4.50678 3.84146 4.25126 3.50901 4.11333 3.125Z" fill="#CACBCE"/>
</svg>
