<svg width="15" height="21" viewBox="0 0 15 21" fill="none" xmlns="http://www.w3.org/2000/svg">
<path d="M14.25 20.4981C14.0666 20.4987 13.8893 20.4351 13.7517 20.3196L9.43864 16.6674C8.31982 15.7201 6.68018 15.7201 5.56137 16.6674L1.24828 20.3196C1.1401 20.4112 1.00639 20.471 0.863299 20.4918C0.720208 20.5126 0.573846 20.4936 0.441874 20.4369C0.309902 20.3803 0.197959 20.2885 0.119552 20.1726C0.0411455 20.0568 -0.000374336 19.9218 2.5431e-06 19.7839V3.35688C0.000871069 2.59944 0.317221 1.87326 0.879641 1.33767C1.44206 0.802084 2.20462 0.500827 3 0.5H12C12.7954 0.500827 13.5579 0.802084 14.1204 1.33767C14.6828 1.87326 14.9991 2.59944 15 3.35688V19.7839C15 19.9733 14.921 20.155 14.7803 20.2889C14.6397 20.4229 14.4489 20.4981 14.25 20.4981Z" fill="#CACBCE"/>
</svg>
