<svg width="22" height="22" viewBox="0 0 22 22" fill="none" xmlns="http://www.w3.org/2000/svg">
<path d="M6.57984 12.592C8.10734 12.592 9.3315 13.8281 9.3315 15.3664V19.0595C9.3315 20.587 8.10734 21.8328 6.57984 21.8328H2.91817C1.4015 21.8328 0.166504 20.587 0.166504 19.0595V15.3664C0.166504 13.8281 1.4015 12.592 2.91817 12.592H6.57984ZM19.0816 12.592C20.5983 12.592 21.8333 13.8281 21.8333 15.3664V19.0595C21.8333 20.587 20.5983 21.8328 19.0816 21.8328H15.4199C13.8924 21.8328 12.6683 20.587 12.6683 19.0595V15.3664C12.6683 13.8281 13.8924 12.592 15.4199 12.592H19.0816ZM6.57984 0.166504C8.10734 0.166504 9.3315 1.41234 9.3315 2.94092V6.634C9.3315 8.17234 8.10734 9.40734 6.57984 9.40734H2.91817C1.4015 9.40734 0.166504 8.17234 0.166504 6.634V2.94092C0.166504 1.41234 1.4015 0.166504 2.91817 0.166504H6.57984ZM19.0816 0.166504C20.5983 0.166504 21.8333 1.41234 21.8333 2.94092V6.634C21.8333 8.17234 20.5983 9.40734 19.0816 9.40734H15.4199C13.8924 9.40734 12.6683 8.17234 12.6683 6.634V2.94092C12.6683 1.41234 13.8924 0.166504 15.4199 0.166504H19.0816Z" fill="#CACBCE"/>
</svg>
