<svg width="253" height="156" viewBox="0 0 253 156" fill="none" xmlns="http://www.w3.org/2000/svg">
<g opacity="0.06">
<mask id="mask0_415_1872" style="mask-type:alpha" maskUnits="userSpaceOnUse" x="0" y="0" width="327" height="156">
<rect width="327" height="156" rx="24" fill="#34A853"/>
</mask>
<g mask="url(#mask0_415_1872)">
<path d="M93.9114 86.2125L98.6566 80.2725L100.39 85.2337L106.065 83.9704L107.069 88.5718L113.473 87.6767L108.739 93.6167L93.9114 86.2125Z" fill="white"/>
<path d="M108.739 94.2022C108.602 94.2022 108.464 94.1688 108.348 94.1102L93.5311 86.706C93.1824 86.5303 93.0872 86.1706 93.2986 85.8945L98.0332 79.9544C98.1918 79.762 98.4771 79.6532 98.7625 79.6867C99.0478 79.7201 99.2909 79.8875 99.3649 80.1134L100.897 84.514L105.864 83.4097C106.065 83.3679 106.287 83.3929 106.456 83.4766C106.636 83.5686 106.752 83.7109 106.794 83.8698L107.672 87.894L113.347 87.0992C113.632 87.0574 113.928 87.1578 114.087 87.3502C114.245 87.5426 114.256 87.7936 114.097 87.9861L109.363 93.9261C109.225 94.1018 108.982 94.2022 108.739 94.2022ZM94.9367 86.0283L108.507 92.8051L111.952 88.4797L107.196 89.149C107.006 89.1741 106.805 89.1406 106.646 89.0486C106.488 88.9566 106.372 88.8227 106.34 88.6721L105.473 84.7065L100.58 85.7941C100.39 85.8359 100.189 85.8192 100.02 85.7439C99.851 85.6686 99.7242 85.5431 99.6713 85.3925L98.382 81.703L94.9367 86.0283Z" fill="white"/>
<path d="M5.81359 141.597C5.60222 141.597 5.40142 141.522 5.25347 141.396C5.08437 141.246 5.03153 141.028 5.10551 140.836L8.05409 133.381C8.13863 133.172 8.36057 133.013 8.63535 132.98L18.3688 131.7C18.6225 131.666 18.8761 131.742 19.0452 131.892C19.2143 132.043 19.2671 132.26 19.1932 132.453L16.2446 139.907C16.16 140.116 15.9381 140.275 15.6633 140.309L5.92984 141.589C5.88757 141.597 5.8453 141.597 5.81359 141.597ZM9.32229 134.076L6.87043 140.275L14.9658 139.204L17.4177 133.005L9.32229 134.076Z" fill="white"/>
<path d="M18.654 91.0815L3.31929 85.041C2.24132 84.6227 2.05109 83.2004 2.88599 81.8701C3.72089 80.5399 5.26388 79.812 6.34185 80.2303L21.6766 86.2708C22.7546 86.6975 22.9448 88.1114 22.1099 89.4417C21.275 90.7719 19.732 91.5081 18.654 91.0815Z" fill="white"/>
<path d="M19.32 91.7925C18.9819 91.7925 18.6437 91.734 18.3266 91.6085L2.9919 85.568C1.53346 84.9907 1.19527 83.2589 2.2204 81.6191C3.25611 79.9793 5.20069 79.1427 6.66969 79.7199L22.0044 85.7604C22.7442 86.0532 23.2304 86.6724 23.3466 87.4672C23.4417 88.1783 23.2409 88.9731 22.7759 89.7177C21.9621 90.9977 20.5777 91.7925 19.32 91.7925ZM18.9819 90.5627C19.5843 90.8053 20.7468 90.295 21.4443 89.1906C21.7825 88.6552 21.9304 88.0695 21.867 87.5926C21.8142 87.2078 21.624 86.9233 21.3386 86.8062L6.00389 80.7657C5.40149 80.5231 4.23897 81.0335 3.54145 82.1378C2.84394 83.2422 3.03417 84.2796 3.63657 84.5222L18.9819 90.5627Z" fill="white"/>
<path d="M2.88611 81.8784C3.72102 80.5482 5.264 79.8203 6.34197 80.2386C7.41995 80.657 7.61018 82.0792 6.77528 83.4095C5.94038 84.7397 4.39739 85.4676 3.31942 85.0493C2.24144 84.6226 2.05121 83.2003 2.88611 81.8784Z" fill="white"/>
<path d="M3.9747 85.7523C3.62595 85.7523 3.28776 85.6937 2.98128 85.5766C1.52284 84.9993 1.18465 83.2675 2.20978 81.6277C2.67479 80.8831 3.35117 80.2807 4.13323 79.9126C4.99984 79.4859 5.91929 79.4273 6.65907 79.7118C7.39886 80.0046 7.88501 80.6237 8.00126 81.4185C8.09637 82.1297 7.89557 82.9245 7.43057 83.6691C6.96556 84.4137 6.27861 85.016 5.50712 85.3842C4.99984 85.6268 4.47142 85.7523 3.9747 85.7523ZM3.5414 82.138C2.84389 83.2424 3.03412 84.2798 3.64708 84.5224C3.93243 84.6312 4.33403 84.581 4.75676 84.3802C5.28518 84.1292 5.77133 83.6858 6.10952 83.1503C6.44771 82.6149 6.59566 82.0293 6.53225 81.5524C6.47941 81.1675 6.28918 80.8831 6.00383 80.7659C5.71849 80.6572 5.31689 80.7074 4.89415 80.9082C4.3763 81.1508 3.87959 81.6026 3.5414 82.138Z" fill="white"/>
<path d="M48.5519 16.8972C48.4145 16.6713 48.3405 16.1777 48.3405 16.1777L47.2308 4.28076L57.8732 12.7224L57.8521 12.7307C58.0846 12.8981 58.2959 13.0905 58.4333 13.3164C59.2365 14.6968 57.6724 16.6211 54.9458 17.6083C52.2085 18.5955 49.3445 18.2776 48.5519 16.8972Z" fill="white"/>
<path d="M51.7966 18.7713C49.9894 18.7713 48.4993 18.2024 47.8863 17.1399C47.7172 16.8471 47.6327 16.3869 47.6115 16.2447L46.4913 4.32269C46.4701 4.08007 46.6392 3.84581 46.9246 3.74542C47.2099 3.64502 47.5375 3.68685 47.7595 3.86255L58.4018 12.3042C58.4441 12.3376 58.4758 12.3711 58.5075 12.4129C58.7717 12.6221 58.962 12.8396 59.0994 13.0739C59.5961 13.9272 59.427 14.9396 58.6238 15.9268C57.8946 16.8303 56.6898 17.6168 55.2419 18.1355C54.0582 18.5705 52.8746 18.7713 51.7966 18.7713ZM49.2285 16.6463C49.8415 17.7088 52.3145 17.9096 54.6289 17.073C55.8232 16.6379 56.7954 16.0104 57.3767 15.2909C57.8946 14.6551 58.0319 14.036 57.7466 13.5591C57.6726 13.4336 57.5458 13.2998 57.345 13.1575C57.2922 13.1157 57.2393 13.0655 57.197 13.0153L48.1082 5.80353L49.07 16.1192C49.1017 16.2865 49.1756 16.5626 49.2285 16.6463Z" fill="white"/>
<path d="M52.0398 12.6057C54.7664 11.6184 57.6199 11.9364 58.4231 13.3168C59.2263 14.6972 57.6622 16.6215 54.9355 17.6087C52.2089 18.596 49.3554 18.278 48.5522 16.8976C47.749 15.5088 49.3132 13.5929 52.0398 12.6057Z" fill="white"/>
<path d="M51.7965 18.7632C51.49 18.7632 51.1941 18.7464 50.9088 18.713C49.4503 18.5456 48.3618 17.9851 47.8757 17.1317C47.3789 16.2784 47.548 15.266 48.3512 14.2788C49.0805 13.3753 50.2853 12.5888 51.7331 12.0701C54.8825 10.9323 58.1164 11.3757 59.0993 13.0741C60.0821 14.7724 58.3912 16.9979 55.2418 18.1357C54.1004 18.554 52.9062 18.7632 51.7965 18.7632ZM52.3461 13.141C51.1519 13.5761 50.1796 14.2035 49.5983 14.923C49.0805 15.5589 48.9431 16.178 49.2284 16.6549C49.5032 17.1317 50.1796 17.458 51.1307 17.5668C52.1981 17.6839 53.4452 17.5166 54.6289 17.0815C56.9433 16.2449 58.3701 14.6386 57.7571 13.5677C57.1336 12.4968 54.6606 12.3044 52.3461 13.141Z" fill="white"/>
<path d="M252.743 134.72L245.546 132.796L244.056 126.906L249.742 122.94L256.939 124.856L258.44 130.746L252.743 134.72Z" fill="white"/>
<path d="M252.744 135.306C252.659 135.306 252.585 135.297 252.511 135.272L245.314 133.356C245.06 133.289 244.881 133.122 244.828 132.913L243.327 127.023C243.274 126.814 243.369 126.605 243.56 126.471L249.256 122.497C249.457 122.355 249.732 122.313 249.985 122.38L257.182 124.296C257.436 124.363 257.616 124.53 257.669 124.739L259.169 130.629C259.222 130.838 259.127 131.047 258.937 131.181L253.24 135.155C253.092 135.256 252.913 135.306 252.744 135.306ZM246.191 132.352L252.575 134.059L257.626 130.537L256.295 125.308L249.911 123.601L244.86 127.123L246.191 132.352Z" fill="white"/>
<path d="M252.744 135.306C252.395 135.306 252.089 135.113 252.015 134.837L250.599 129.282L243.814 127.475C243.423 127.374 243.222 127.04 243.349 126.73C243.475 126.421 243.898 126.262 244.289 126.362L251.486 128.278C251.74 128.345 251.92 128.512 251.972 128.721L253.473 134.611C253.558 134.929 253.294 135.239 252.892 135.297C252.839 135.297 252.786 135.306 252.744 135.306Z" fill="white"/>
<path d="M251.243 129.416C251.042 129.416 250.831 129.349 250.683 129.215C250.408 128.972 250.44 128.604 250.746 128.387L256.443 124.413C256.749 124.204 257.214 124.22 257.489 124.463C257.764 124.706 257.732 125.074 257.426 125.291L251.729 129.265C251.592 129.366 251.423 129.416 251.243 129.416Z" fill="white"/>
<path d="M163.557 107.228L163.568 107.245C163.652 107.17 163.737 107.094 163.832 107.027C163.959 106.935 164.085 106.852 164.244 106.785C164.371 106.735 164.55 106.693 164.72 106.659C164.794 106.642 164.878 106.626 164.952 106.617C165.026 106.601 165.089 106.592 165.089 106.592L165.438 106.601C165.491 106.601 165.544 106.601 165.607 106.609L175.098 106.868L169.983 113.202C169.951 113.244 169.919 113.277 169.887 113.319L169.697 113.553L169.687 113.536C169.602 113.612 169.518 113.687 169.422 113.754C169.296 113.846 169.169 113.93 169.01 113.996C168.883 114.047 168.693 114.089 168.524 114.122C168.45 114.139 168.376 114.155 168.292 114.164C168.218 114.181 168.154 114.189 168.154 114.189L167.805 114.181C167.753 114.181 167.7 114.181 167.636 114.172L158.146 113.913L163.261 107.58C163.293 107.538 163.325 107.504 163.356 107.462L163.557 107.228Z" fill="white"/>
<path d="M168.165 114.758C168.154 114.758 168.144 114.758 168.144 114.758L167.795 114.75C167.689 114.75 167.626 114.75 167.563 114.741L158.146 114.49C157.882 114.482 157.639 114.365 157.512 114.181C157.385 113.997 157.396 113.771 157.544 113.595L162.659 107.262C162.659 107.253 162.722 107.186 162.722 107.186L162.934 106.919C162.986 106.852 163.06 106.793 163.134 106.751C163.198 106.701 163.261 106.643 163.335 106.601C163.441 106.517 163.631 106.392 163.885 106.283C163.885 106.283 163.895 106.283 163.895 106.275C164.054 106.208 164.255 106.149 164.54 106.099C164.677 106.065 164.772 106.049 164.857 106.04L164.942 106.024C164.994 106.015 165.068 106.007 165.111 106.015L165.459 106.024C165.565 106.024 165.629 106.024 165.681 106.032L175.108 106.291C175.373 106.3 175.616 106.417 175.742 106.601C175.869 106.785 175.859 107.011 175.711 107.186L170.596 113.511C170.596 113.511 170.564 113.553 170.532 113.595L170.321 113.854C170.268 113.921 170.194 113.98 170.12 114.022C170.057 114.08 169.993 114.131 169.919 114.181C169.761 114.306 169.592 114.407 169.401 114.482C169.38 114.49 169.359 114.499 169.349 114.507C169.201 114.566 169 114.624 168.725 114.683C168.588 114.716 168.503 114.725 168.408 114.741L168.313 114.758C168.26 114.758 168.207 114.758 168.165 114.758ZM159.488 113.352L167.679 113.578L167.816 114.172L167.837 113.587L168.102 113.595L168.281 113.562C168.524 113.511 168.619 113.486 168.651 113.47C168.662 113.461 168.672 113.461 168.683 113.453C168.746 113.428 168.82 113.378 168.915 113.311C169 113.252 169.053 113.202 169.106 113.152C169.127 113.135 169.148 113.11 169.169 113.093L169.253 112.993L169.317 113.009C169.349 112.993 169.391 112.976 169.433 112.968L169.327 112.917L173.766 107.412L165.576 107.186L165.438 106.592L165.417 107.178L165.153 107.17L164.973 107.203C164.709 107.253 164.614 107.287 164.593 107.295C164.593 107.295 164.582 107.295 164.582 107.304C164.508 107.337 164.434 107.379 164.339 107.454C164.255 107.513 164.202 107.563 164.149 107.613C164.128 107.63 164.107 107.655 164.086 107.672L164.001 107.772L163.948 107.755C163.906 107.772 163.874 107.789 163.832 107.797L163.948 107.856L159.488 113.352Z" fill="white"/>
<path d="M167.953 114.767C167.288 114.767 166.59 114.608 165.882 114.29C164.762 113.788 163.758 112.926 163.05 111.864C162.352 110.801 162.025 109.663 162.13 108.643C162.247 107.53 162.87 106.685 163.885 106.267C164.244 106.116 164.698 106.225 164.889 106.509C165.079 106.794 164.941 107.153 164.582 107.304C163.842 107.613 163.663 108.341 163.62 108.743C163.536 109.538 163.8 110.458 164.371 111.32C164.941 112.182 165.745 112.876 166.622 113.269C167.066 113.47 167.932 113.763 168.672 113.453C169.031 113.303 169.475 113.411 169.676 113.704C169.866 113.989 169.729 114.34 169.37 114.499C168.926 114.683 168.45 114.767 167.953 114.767Z" fill="white"/>
<path d="M44.4198 116.314L48.4147 104.903L42.7606 106.601L41.7354 100.125L37.6877 111.395L43.2256 109.73L44.4198 116.314Z" fill="white"/>
<path d="M44.4198 116.9C44.3987 116.9 44.3881 116.9 44.367 116.9C44.0182 116.883 43.7329 116.674 43.68 116.398L42.6232 110.541L37.9414 111.947C37.6772 112.031 37.3813 111.98 37.1805 111.83C36.9797 111.679 36.8951 111.453 36.9691 111.236L41.0273 99.9664C41.1225 99.6986 41.4501 99.5229 41.7988 99.5397C42.1476 99.5648 42.4329 99.7739 42.4752 100.05L43.3735 105.789L48.1504 104.359C48.4146 104.283 48.7106 104.325 48.9114 104.476C49.1122 104.626 49.1967 104.852 49.1227 105.07L45.1279 116.481C45.0433 116.724 44.7474 116.9 44.4198 116.9ZM43.2256 109.144C43.3524 109.144 43.4898 109.169 43.606 109.228C43.7963 109.32 43.9336 109.47 43.9654 109.646L44.6523 113.461L47.3155 105.865L43.0142 107.153C42.8028 107.22 42.5598 107.195 42.3695 107.111C42.1793 107.019 42.0419 106.86 42.0208 106.685L41.4501 103.07L38.7974 110.441L42.9614 109.194C43.0459 109.161 43.141 109.144 43.2256 109.144Z" fill="white"/>
<path d="M138.795 93.1143C138.795 93.1143 137.855 91.1482 136.428 88.3372C134.938 85.4089 136.745 83.3843 139.038 83.0078C141.617 82.5811 143.202 84.313 143.541 86.1201C145.644 85.342 148.339 85.4424 149.311 87.3834C150.177 89.1152 149.036 91.416 145.136 92.0518C141.385 92.6542 138.795 93.1143 138.795 93.1143Z" fill="white"/>
<path d="M138.795 93.7001C138.489 93.7001 138.214 93.5495 138.109 93.3237C138.109 93.3237 137.168 91.3576 135.741 88.5549C134.949 86.9904 134.949 85.4844 135.752 84.3048C136.407 83.3343 137.548 82.6566 138.891 82.4307C140.043 82.2383 141.142 82.4056 142.061 82.9076C143.012 83.4263 143.72 84.288 144.09 85.3255C145.38 84.9992 146.68 84.9992 147.757 85.3338C148.793 85.6601 149.575 86.296 150.009 87.166C150.516 88.1784 150.431 89.3078 149.765 90.27C148.962 91.4496 147.366 92.2779 145.284 92.6209C141.554 93.2233 138.965 93.6834 138.965 93.6918C138.901 93.7001 138.848 93.7001 138.795 93.7001ZM139.81 83.5267C139.609 83.5267 139.398 83.5434 139.187 83.5769C138.278 83.7275 137.496 84.196 137.052 84.8569C136.46 85.727 136.481 86.89 137.115 88.1198C138.13 90.111 138.901 91.6839 139.261 92.4368C140.243 92.2611 142.325 91.9014 144.989 91.4747C146.637 91.207 147.863 90.5879 148.466 89.7178C148.92 89.0568 148.973 88.2871 148.635 87.6011C148.349 87.0322 147.874 86.639 147.208 86.4298C146.288 86.137 145.041 86.2207 143.858 86.6557C143.646 86.731 143.403 86.731 143.192 86.639C142.991 86.5553 142.843 86.3963 142.811 86.2123C142.621 85.2 142.019 84.3215 141.205 83.8781C140.793 83.6438 140.328 83.5267 139.81 83.5267Z" fill="white"/>
<path d="M108.179 60.804C104.85 60.804 102.102 58.6957 102.018 56.0436C101.933 53.3496 104.639 51.1158 108.031 51.0489C109.69 51.0071 111.244 51.4923 112.427 52.3959C113.622 53.2911 114.298 54.5042 114.34 55.8093C114.425 58.5033 111.73 60.7371 108.327 60.804C108.285 60.804 108.232 60.804 108.179 60.804ZM108.179 52.2202C108.137 52.2202 108.105 52.2202 108.063 52.2202C106.816 52.2453 105.643 52.6552 104.786 53.3664C103.92 54.0859 103.465 55.0229 103.497 56.0185C103.561 58.0599 105.685 59.6913 108.295 59.6327C110.874 59.5825 112.924 57.8758 112.861 55.8344C112.808 53.8181 110.715 52.2202 108.179 52.2202Z" fill="white"/>
<path d="M79.5384 75.0599C79.4115 75.0599 79.2847 75.0348 79.1685 74.9846C77.393 74.1814 76.1142 72.8846 75.5647 71.3201C75.0257 69.7556 75.2793 68.1242 76.2833 66.7186C77.2979 65.3131 78.936 64.3008 80.9123 63.8657C82.8885 63.4307 84.9494 63.6398 86.7249 64.4346C87.0842 64.5936 87.2004 64.9533 86.9996 65.2294C86.7988 65.5139 86.3444 65.6059 85.9957 65.447C84.5584 64.8028 82.8885 64.6354 81.3033 64.9868C79.718 65.3382 78.3864 66.1497 77.5726 67.2875C75.8923 69.6301 76.928 72.6253 79.8977 73.9555C80.257 74.1145 80.3733 74.4742 80.1725 74.7503C80.0456 74.9511 79.792 75.0599 79.5384 75.0599Z" fill="white"/>
<path d="M121.495 115.344C121.41 115.344 121.326 115.336 121.241 115.311C120.861 115.202 120.66 114.867 120.797 114.558C121.812 112.324 123.873 110.533 126.589 109.521C129.305 108.509 132.359 108.4 135.181 109.203C135.561 109.312 135.762 109.647 135.625 109.956C135.487 110.257 135.065 110.416 134.674 110.307C132.222 109.613 129.569 109.705 127.212 110.584C124.856 111.462 123.07 113.018 122.182 114.959C122.076 115.193 121.801 115.344 121.495 115.344Z" fill="white"/>
<path d="M256.982 14.2453C256.739 14.2453 256.495 14.1449 256.358 13.9692L247.998 3.5364C247.777 3.26031 247.882 2.90056 248.231 2.72486C248.58 2.54917 249.034 2.63283 249.256 2.90892L257.616 13.3417C257.838 13.6178 257.732 13.9776 257.383 14.1533C257.256 14.2202 257.119 14.2453 256.982 14.2453Z" fill="white"/>
<path d="M80.1091 102.51C79.9928 102.51 79.8766 102.485 79.7603 102.443L67.7758 97.3645C67.4165 97.2139 67.2791 96.8541 67.4693 96.5697C67.6595 96.2852 68.114 96.1765 68.4733 96.3271L80.4578 101.405C80.8172 101.556 80.9546 101.916 80.7643 102.2C80.6269 102.393 80.3733 102.51 80.1091 102.51Z" fill="white"/>
<path d="M70.9043 104.71C70.7881 104.71 70.6718 104.685 70.5556 104.643C70.1962 104.493 70.0589 104.133 70.2491 103.849L76.6641 94.3612C76.8543 94.0767 77.3088 93.968 77.6681 94.1186C78.0274 94.2692 78.1648 94.6289 77.9746 94.9134L71.5596 104.401C71.4222 104.593 71.1685 104.71 70.9043 104.71Z" fill="white"/>
<path d="M98.0439 115.461C97.8642 115.461 97.6951 115.411 97.5472 115.31C97.2407 115.093 97.2196 114.725 97.4838 114.482L99.9779 112.274C100.253 112.031 100.718 112.006 101.024 112.223C101.331 112.441 101.352 112.809 101.088 113.052L98.5935 115.26C98.4561 115.394 98.2447 115.461 98.0439 115.461Z" fill="white"/>
<path d="M89.79 122.781C89.6103 122.781 89.4412 122.731 89.2933 122.631C88.9868 122.413 88.9657 122.045 89.2299 121.803L91.724 119.594C91.9988 119.351 92.4638 119.335 92.7703 119.544C93.0768 119.761 93.0979 120.129 92.8337 120.372L90.3396 122.581C90.1916 122.715 89.9908 122.781 89.79 122.781Z" fill="white"/>
<path d="M103.064 119.318C103.011 119.318 102.958 119.318 102.916 119.309L99.2488 118.707C98.8472 118.64 98.5936 118.33 98.6781 118.012C98.7627 117.695 99.1537 117.494 99.5553 117.561L103.223 118.163C103.624 118.23 103.878 118.54 103.793 118.857C103.719 119.125 103.413 119.318 103.064 119.318Z" fill="white"/>
<path d="M90.9313 117.318C90.8785 117.318 90.8256 117.318 90.7833 117.31L87.1161 116.707C86.7145 116.64 86.4609 116.331 86.5454 116.013C86.63 115.695 87.021 115.494 87.4226 115.561L91.0898 116.164C91.4914 116.231 91.7451 116.54 91.6605 116.858C91.5865 117.126 91.2801 117.318 90.9313 117.318Z" fill="white"/>
<path d="M97.6949 124.086C97.3885 124.086 97.0925 123.928 96.9868 123.685L95.8138 120.865C95.6869 120.556 95.8983 120.23 96.2893 120.129C96.6804 120.029 97.0925 120.196 97.2194 120.506L98.3924 123.325C98.5193 123.635 98.3079 123.961 97.9169 124.061C97.8429 124.07 97.7689 124.086 97.6949 124.086Z" fill="white"/>
<path d="M93.8164 114.767C93.5099 114.767 93.214 114.608 93.1083 114.365L91.9352 111.546C91.8084 111.236 92.0198 110.91 92.4108 110.809C92.8018 110.709 93.214 110.876 93.3408 111.186L94.5139 114.005C94.6407 114.315 94.4294 114.641 94.0383 114.742C93.9644 114.758 93.8904 114.767 93.8164 114.767Z" fill="white"/>
<path d="M63.0835 51.3413C63.0624 51.3413 63.0413 51.3413 63.0201 51.3413C62.6185 51.3079 62.312 51.0234 62.3543 50.7055L63.3266 42.3308L52.7371 41.5611C52.3355 41.5277 52.029 41.2432 52.0713 40.9253C52.1136 40.599 52.4623 40.3647 52.8745 40.3982L64.1932 41.2181C64.5948 41.2516 64.9013 41.536 64.859 41.8539L63.8233 50.8143C63.7916 51.1155 63.464 51.3413 63.0835 51.3413Z" fill="white"/>
<path d="M219.411 36.006C219.348 36.006 219.284 35.9976 219.221 35.9893L210.766 34.2156C210.523 34.1654 210.333 34.0232 210.248 33.8308C210.174 33.6467 210.217 33.4376 210.375 33.2786L214.666 29.0201L207.3 27.4724C206.909 27.3887 206.666 27.0708 206.771 26.7529C206.877 26.4433 207.268 26.2509 207.68 26.3345L216.135 28.1082C216.378 28.1584 216.568 28.3006 216.653 28.4931C216.727 28.6771 216.685 28.8863 216.526 29.0452L212.235 33.3037L219.601 34.8515C219.992 34.9351 220.235 35.253 220.13 35.571C220.035 35.8303 219.739 36.006 219.411 36.006Z" fill="white"/>
<path d="M135.445 69.5385C135.276 69.5385 135.107 69.4966 134.97 69.4046L129.02 65.4808C128.703 65.2716 128.66 64.9035 128.925 64.6525C129.189 64.4015 129.654 64.3681 129.971 64.5772L135.35 68.1329L139.842 63.8745C140.106 63.6235 140.571 63.59 140.888 63.7992L146.267 67.3549L150.759 63.0964C151.023 62.8454 151.488 62.8119 151.805 63.0211C152.122 63.2303 152.165 63.5984 151.9 63.8494L146.944 68.5596C146.68 68.8106 146.215 68.8441 145.898 68.6349L140.518 65.0792L136.027 69.3377C135.868 69.4715 135.657 69.5385 135.445 69.5385Z" fill="white"/>
<path d="M38.7975 87.9607C38.4487 87.9607 38.1422 87.7683 38.0683 87.4922C37.9837 87.1743 38.2479 86.8647 38.6495 86.8062L45.4873 85.7269L44.1239 80.3139C44.0394 79.996 44.3036 79.6864 44.7052 79.6279L51.5429 78.5486L50.1796 73.1356C50.0951 72.8177 50.3593 72.5081 50.7609 72.4496L57.5986 71.3703L56.2353 65.9573C56.1508 65.6394 56.415 65.3298 56.8166 65.2713C57.2182 65.2043 57.6092 65.4135 57.6832 65.7314L59.1945 71.7217C59.279 72.0396 59.0148 72.3492 58.6132 72.4077L51.7755 73.487L53.1388 78.9C53.2233 79.2179 52.9591 79.5275 52.5575 79.586L45.7198 80.6653L47.0831 86.0783C47.1676 86.3962 46.9034 86.7058 46.5018 86.7643L38.9349 87.9607C38.8926 87.9607 38.8503 87.9607 38.7975 87.9607Z" fill="white"/>
<path d="M184.24 86.0199C184.176 86.0199 184.113 86.0115 184.049 86.0032L173.788 83.8447C173.397 83.761 173.153 83.4431 173.259 83.1251L175.986 75.0015C176.039 74.8509 176.165 74.7254 176.335 74.6417C176.504 74.5664 176.704 74.5413 176.895 74.5831L187.157 76.7417C187.548 76.8253 187.791 77.1432 187.685 77.4612L184.958 85.5848C184.863 85.8526 184.567 86.0199 184.24 86.0199ZM174.887 82.8574L183.722 84.7148L186.068 77.7205L177.233 75.8632L174.887 82.8574Z" fill="white"/>
<path d="M234.112 113.687C233.879 113.687 233.647 113.645 233.436 113.553C232.717 113.252 232.442 112.549 232.812 111.981C232.992 111.704 233.298 111.504 233.679 111.412C234.059 111.32 234.45 111.345 234.799 111.487C235.148 111.629 235.401 111.872 235.517 112.173C235.634 112.466 235.602 112.784 235.422 113.06C235.158 113.461 234.651 113.687 234.112 113.687ZM234.112 112.516V112.524L234.767 112.784L234.112 112.516Z" fill="white"/>
<path d="M242.968 40.0972L236.373 35.3702L242.852 34.8599L242.239 30.1914H248.136L248.094 25.0127L254.688 29.7397L242.968 40.0972Z" fill="white"/>
<path d="M242.968 40.6829C242.788 40.6829 242.609 40.6327 242.471 40.5323L235.877 35.8054C235.655 35.6464 235.581 35.4038 235.665 35.1863C235.76 34.9687 236.003 34.8098 236.299 34.7847L242.027 34.3329L241.488 30.2501C241.467 30.0828 241.531 29.9238 241.679 29.7984C241.816 29.6729 242.017 29.6059 242.228 29.6059H247.386L247.354 25.0128C247.354 24.7786 247.523 24.5694 247.798 24.4774C248.062 24.3853 248.379 24.4188 248.59 24.5778L255.185 29.3047C255.492 29.5223 255.513 29.8904 255.238 30.133L243.518 40.4905C243.391 40.6076 243.2 40.6746 243 40.6829C243 40.6829 242.989 40.6829 242.968 40.6829ZM238.107 35.8221L242.915 39.269L253.642 29.7816L248.844 26.3347L248.876 30.1832C248.876 30.3422 248.802 30.4928 248.664 30.6015C248.527 30.7103 248.337 30.7772 248.136 30.7772H243.063L243.592 34.8014C243.613 34.9604 243.549 35.111 243.433 35.2365C243.306 35.3536 243.127 35.4373 242.936 35.4456L238.107 35.8221Z" fill="white"/>
<path d="M258.039 97.3981C257.996 97.3981 257.965 97.3981 257.922 97.3898L248.094 96.1348C247.819 96.1014 247.586 95.9424 247.502 95.7332L244.49 88.2203C244.416 88.0279 244.469 87.8103 244.638 87.6597C244.807 87.5092 245.061 87.4339 245.314 87.4673L255.143 88.7306C255.418 88.7641 255.64 88.9231 255.724 89.1322L258.736 96.6452C258.81 96.8376 258.757 97.0551 258.588 97.2057C258.461 97.3228 258.25 97.3981 258.039 97.3981ZM248.781 95.0388L256.971 96.0846L254.456 89.8183L246.265 88.7725L248.781 95.0388Z" fill="white"/>
<path d="M180.139 15.5922L196.14 13.9607C197.26 13.8436 198.348 14.8727 198.57 16.2615C198.792 17.6419 198.074 18.8634 196.953 18.9722L180.953 20.6036C179.833 20.7207 178.744 19.6917 178.522 18.3029C178.3 16.9224 179.019 15.7093 180.139 15.5922Z" fill="white"/>
<path d="M180.784 21.2061C179.336 21.2061 178.057 20.0181 177.782 18.3867C177.655 17.6086 177.782 16.8389 178.152 16.2282C178.564 15.5421 179.251 15.0987 180.044 15.0151L196.044 13.3836C197.598 13.233 199.025 14.4545 199.31 16.1864C199.437 16.9644 199.31 17.7341 198.94 18.3449C198.528 19.0309 197.841 19.4743 197.048 19.558L181.048 21.1894C180.963 21.1978 180.868 21.2061 180.784 21.2061ZM196.309 14.5382C196.287 14.5382 196.256 14.5382 196.235 14.5382L180.234 16.1696C179.959 16.1947 179.685 16.3955 179.494 16.7218C179.251 17.1317 179.167 17.6756 179.251 18.2277C179.431 19.3321 180.245 20.0767 180.858 20.0265L196.858 18.3951C197.133 18.37 197.408 18.1692 197.598 17.8429C197.841 17.4329 197.926 16.8891 197.841 16.3369C197.672 15.2744 196.911 14.5382 196.309 14.5382Z" fill="white"/>
<path d="M198.581 16.2617C198.803 17.6506 198.084 18.8637 196.964 18.9724C195.843 19.0896 194.755 18.0605 194.533 16.6717C194.311 15.2829 195.03 14.0698 196.15 13.961C197.27 13.8522 198.359 14.8813 198.581 16.2617Z" fill="white"/>
<path d="M196.795 19.5747C196.087 19.5747 195.389 19.2903 194.839 18.7715C194.29 18.2528 193.92 17.5333 193.793 16.7553C193.666 15.9772 193.793 15.2075 194.163 14.5968C194.575 13.9107 195.262 13.4673 196.055 13.3836C197.608 13.233 199.035 14.4545 199.32 16.1864C199.447 16.9644 199.32 17.7341 198.951 18.3449C198.538 19.0309 197.851 19.4743 197.059 19.558C196.974 19.5663 196.879 19.5747 196.795 19.5747ZM196.308 14.5382C196.287 14.5382 196.256 14.5382 196.235 14.5382C195.96 14.5633 195.685 14.7641 195.495 15.0904C195.252 15.5003 195.167 16.0441 195.252 16.5963C195.347 17.1485 195.6 17.6588 195.97 18.0102C196.256 18.2863 196.594 18.4285 196.858 18.3951C197.133 18.37 197.408 18.1692 197.598 17.8429C197.841 17.4329 197.925 16.8891 197.841 16.3369C197.672 15.2744 196.911 14.5382 196.308 14.5382Z" fill="white"/>
<path d="M216.896 74.9765C217.17 74.851 217.783 74.759 217.783 74.759L232.6 72.9854L222.825 81.9875L222.814 81.9708C222.624 82.1716 222.402 82.3473 222.117 82.4644C220.447 83.1923 217.921 82.113 216.484 80.0465C215.046 77.98 215.226 75.7128 216.896 74.9765Z" fill="white"/>
<path d="M220.965 83.2758C220.616 83.2758 220.246 83.234 219.876 83.1504C218.333 82.799 216.822 81.7448 215.839 80.3309C214.169 77.9465 214.476 75.3697 216.536 74.4661C216.885 74.3155 217.466 74.2151 217.636 74.1817L232.484 72.408C232.791 72.3745 233.097 72.4917 233.245 72.7008C233.393 72.9183 233.361 73.1777 233.161 73.3701L223.385 82.3723C223.342 82.4057 223.3 82.4392 223.258 82.4643C223.015 82.6902 222.761 82.8575 222.476 82.9747C222.021 83.1755 221.514 83.2758 220.965 83.2758ZM217.255 75.4952C215.966 76.0641 215.913 78.0134 217.139 79.7704C217.931 80.9082 219.136 81.7699 220.299 82.0376C220.69 82.1297 221.261 82.1882 221.778 81.9623C221.937 81.8954 222.085 81.7866 222.243 81.6193C222.296 81.5691 222.349 81.5273 222.412 81.4938L230.751 73.8135L217.91 75.3529C217.699 75.3697 217.361 75.445 217.255 75.4952Z" fill="white"/>
<path d="M222.539 77.394C223.987 79.4604 223.797 81.7277 222.127 82.464C220.457 83.1918 217.931 82.1126 216.494 80.0461C215.046 77.9796 215.236 75.7123 216.906 74.9761C218.565 74.2482 221.091 75.3275 222.539 77.394Z" fill="white"/>
<path d="M220.965 83.2755C220.616 83.2755 220.246 83.2337 219.876 83.15C218.333 82.7987 216.822 81.7445 215.839 80.3306C214.169 77.9462 214.476 75.3694 216.536 74.4658C217.572 74.014 218.861 74.0642 220.151 74.6248C221.334 75.1351 222.412 76.0219 223.184 77.1179C224.854 79.5023 224.547 82.0792 222.486 82.9827C222.021 83.1751 221.514 83.2755 220.965 83.2755ZM218.058 75.3359C217.762 75.3359 217.488 75.3861 217.255 75.4949C215.966 76.0554 215.913 78.0131 217.128 79.7701C217.921 80.9079 219.126 81.7696 220.288 82.0373C220.679 82.1294 221.25 82.1879 221.768 81.962C223.057 81.4015 223.11 79.4438 221.895 77.6868C221.261 76.7833 220.394 76.0638 219.453 75.6622C218.957 75.4447 218.481 75.3359 218.058 75.3359Z" fill="white"/>
<path d="M110.546 26.3344L118.293 25.9077L122.626 31.0028L119.233 36.5246L111.487 36.9513L107.143 31.8562L110.546 26.3344Z" fill="white"/>
<path d="M111.487 37.5369C111.244 37.5369 111.011 37.4365 110.874 37.2776L106.53 32.1825C106.382 32.0068 106.361 31.7893 106.477 31.5969L109.88 26.0751C109.997 25.8827 110.229 25.7655 110.493 25.7488L118.24 25.3221C118.515 25.3054 118.758 25.4058 118.906 25.5815L123.249 30.6766C123.397 30.8523 123.418 31.0698 123.302 31.2622L119.899 36.784C119.783 36.9764 119.55 37.0935 119.286 37.1103L111.54 37.5369C111.518 37.5369 111.508 37.5369 111.487 37.5369ZM107.999 31.806L111.867 36.3406L118.758 35.9557L121.791 31.0363L117.923 26.5018L111.032 26.8866L107.999 31.806Z" fill="white"/>
<path d="M114.89 32.0154C114.647 32.0154 114.414 31.915 114.277 31.7561L109.933 26.661C109.701 26.3933 109.796 26.0251 110.134 25.8495C110.472 25.6738 110.937 25.7407 111.159 26.0084L115.26 30.8191L122.573 30.4175C122.985 30.3924 123.334 30.635 123.366 30.9613C123.397 31.2876 123.091 31.5637 122.679 31.5888L114.932 32.0154C114.921 32.0154 114.9 32.0154 114.89 32.0154Z" fill="white"/>
<path d="M111.487 37.5371C111.381 37.5371 111.265 37.5204 111.159 37.4786C110.789 37.3363 110.641 36.9849 110.821 36.6921L114.224 31.1704C114.403 30.8775 114.847 30.7604 115.217 30.9026C115.587 31.0449 115.735 31.3962 115.555 31.6891L112.152 37.2108C112.026 37.42 111.761 37.5371 111.487 37.5371Z" fill="white"/>
<path d="M31.4734 58.0178L31.4522 58.0011C31.41 58.0931 31.3571 58.1768 31.2937 58.2604C31.2092 58.3692 31.1246 58.478 31.0084 58.57C30.9132 58.6453 30.7547 58.729 30.6173 58.7959C30.5539 58.8294 30.4905 58.8628 30.4165 58.8879C30.3531 58.913 30.3003 58.9381 30.3003 58.9381L29.9832 59.005C29.9304 59.0134 29.8881 59.0301 29.8247 59.0385L21.0952 60.8958L23.5259 54.002C23.5365 53.9602 23.5576 53.9183 23.5682 53.8765L23.6528 53.6255L23.6739 53.6422C23.7162 53.5502 23.769 53.4665 23.8324 53.3829C23.917 53.2741 24.0015 53.1654 24.1178 53.0733C24.2129 52.998 24.3714 52.9144 24.5088 52.8474C24.5722 52.814 24.6356 52.7805 24.7096 52.7554C24.7836 52.7303 24.8364 52.7136 24.8364 52.7136L25.1535 52.6466C25.2063 52.6383 25.2486 52.6215 25.3014 52.6132L34.0309 50.7559L31.6002 57.6497C31.5896 57.6915 31.5685 57.7334 31.5579 57.7752L31.4734 58.0178Z" fill="white"/>
<path d="M21.0953 61.4817C20.9051 61.4817 20.7149 61.4231 20.5669 61.306C20.3767 61.1554 20.3133 60.9378 20.3767 60.7371L22.8074 53.8432C22.8074 53.8348 22.8391 53.7595 22.8391 53.7512L22.9342 53.4667C22.9659 53.3914 23.0082 53.3245 23.0611 53.2659C23.1033 53.199 23.1456 53.1404 23.1879 53.0819C23.2936 52.9313 23.4204 52.7974 23.5578 52.6803C23.5683 52.6719 23.5789 52.6636 23.5789 52.6552C23.7057 52.5548 23.8748 52.4628 24.1073 52.3456C24.2236 52.2871 24.2976 52.2536 24.3715 52.2285L24.4455 52.195C24.4984 52.1699 24.5512 52.1532 24.604 52.1448L24.9211 52.0779C25.0162 52.0528 25.069 52.0445 25.1325 52.0361L33.7985 50.1871C34.0522 50.1369 34.3269 50.1955 34.5172 50.3377C34.7074 50.4883 34.7708 50.7058 34.7074 50.9066L32.2767 57.8005C32.2767 57.8088 32.245 57.8841 32.245 57.8925L32.1393 58.177C32.1076 58.2523 32.0653 58.3192 32.0125 58.3778C31.9702 58.4447 31.9279 58.5032 31.8857 58.5618C31.78 58.7124 31.6531 58.8463 31.5158 58.955C31.5052 58.9634 31.4946 58.9718 31.4841 58.9801C31.3572 59.0722 31.1987 59.1726 30.9556 59.2897C30.8394 59.3482 30.7654 59.3817 30.6914 59.4152L30.6492 59.457C30.5963 59.4821 30.5435 59.4988 30.4906 59.5072L30.1736 59.5741C30.0785 59.5992 30.0256 59.6076 29.9622 59.616L21.2961 61.4649C21.2327 61.4733 21.1693 61.4817 21.0953 61.4817ZM24.139 54.1026L24.2553 54.1277L22.1627 60.0678L29.6346 58.4782L29.9833 59.0136L29.7931 58.4447L30.1736 58.3276C30.3744 58.2272 30.4589 58.1853 30.4801 58.1686L30.4906 58.1602C30.5435 58.1184 30.5963 58.0598 30.6597 57.9762C30.7126 57.9092 30.7443 57.8507 30.776 57.7921C30.7865 57.767 30.7971 57.7503 30.8182 57.7252L30.8605 57.6164L30.9134 57.6248C30.9451 57.5997 30.9662 57.5746 30.9979 57.5579L30.8817 57.5328L32.9742 51.5927L24.9634 53.3245C24.752 53.4249 24.678 53.4751 24.6569 53.4918L24.6463 53.5002C24.5935 53.542 24.5406 53.6006 24.4772 53.6843C24.4244 53.7512 24.3927 53.8097 24.361 53.8683C24.3504 53.8934 24.3398 53.9101 24.3187 53.9352L24.2764 54.044L24.2236 54.0356C24.2024 54.0607 24.1707 54.0858 24.139 54.1026Z" fill="white"/>
<path d="M31.0086 59.1642C30.8183 59.1642 30.6281 59.1056 30.4801 58.9885C30.1948 58.7626 30.1948 58.3861 30.4801 58.1602C31.0297 57.7252 30.9451 57.0391 30.8395 56.6627C30.6387 55.9264 30.0785 55.1567 29.2542 54.4958C28.4299 53.8432 27.4681 53.3831 26.5381 53.2241C26.0626 53.1404 25.1959 53.0651 24.6464 53.5002C24.3505 53.7261 23.8855 53.7261 23.6001 53.5002C23.3148 53.2743 23.3148 52.8978 23.6001 52.6719C24.3822 52.0612 25.5341 51.852 26.8657 52.0863C28.0705 52.3038 29.2965 52.8643 30.311 53.6759C31.3256 54.4874 32.0337 55.4663 32.2873 56.42C32.5727 57.4742 32.2979 58.3861 31.5158 58.9969C31.3784 59.1056 31.1988 59.1642 31.0086 59.1642Z" fill="white"/>
<path d="M186.765 39.043L177.021 47.5181L182.855 48.0033L180.16 53.9518L189.872 45.6105L184.165 45.142L186.765 39.043Z" fill="white"/>
<path d="M180.16 54.5373C180.033 54.5373 179.896 54.5122 179.78 54.4537C179.473 54.3114 179.346 54.0186 179.463 53.7593L181.84 48.5136L176.947 48.1036C176.672 48.0785 176.429 47.9363 176.334 47.7272C176.239 47.518 176.292 47.2921 176.482 47.1248L186.226 38.6497C186.459 38.4405 186.85 38.3987 187.146 38.5409C187.452 38.6832 187.59 38.9676 187.473 39.2353L185.169 44.64L189.957 45.0416C190.232 45.0667 190.475 45.2089 190.57 45.4181C190.665 45.6272 190.612 45.8615 190.422 46.0204L180.71 54.3533C180.562 54.4704 180.361 54.5373 180.16 54.5373ZM178.554 47.0579L182.929 47.426C183.151 47.4427 183.362 47.5431 183.479 47.6937C183.595 47.8443 183.626 48.0367 183.552 48.204L182.094 51.4334L188.34 46.0706L184.102 45.7192C183.88 45.7025 183.679 45.6021 183.552 45.4515C183.426 45.3009 183.405 45.1169 183.479 44.9495L184.948 41.5026L178.554 47.0579Z" fill="white"/>
<path d="M94.239 146.224C94.239 146.224 91.8294 145.078 88.3313 143.48C84.6852 141.815 84.5055 139.205 86.1014 137.707C87.8874 136.017 90.6352 136.636 92.4107 137.966C93.5204 136.235 95.8348 134.921 98.2339 136.034C100.379 137.021 101.33 139.523 98.6143 142.066C96.0145 144.501 94.239 146.224 94.239 146.224Z" fill="white"/>
<path d="M94.239 146.81C94.1122 146.81 93.9748 146.785 93.8586 146.726C93.8374 146.718 91.4173 145.563 87.972 143.99C86.038 143.112 84.8015 141.865 84.495 140.476C84.2414 139.347 84.6218 138.201 85.5518 137.331C86.3445 136.578 87.3802 136.159 88.5427 136.101C89.7581 136.042 91.0685 136.394 92.2311 137.071C93.0342 136.126 94.1122 135.44 95.2853 135.172C96.4056 134.913 97.5575 135.03 98.6249 135.523C99.8614 136.092 100.717 137.071 100.961 138.201C101.256 139.589 100.633 141.087 99.185 142.442C96.6064 144.844 94.8309 146.575 94.8097 146.592C94.6723 146.734 94.4504 146.81 94.239 146.81ZM88.7858 137.272C88.7329 137.272 88.6695 137.272 88.6167 137.272C87.8557 137.306 87.2005 137.582 86.6721 138.084C86.0274 138.686 85.7632 139.489 85.9429 140.276C86.1754 141.313 87.1582 142.267 88.7012 142.978C91.2059 144.116 93.1611 145.036 94.07 145.463C94.7358 144.818 96.1942 143.421 98.0542 141.681C99.2062 140.602 99.724 139.439 99.4915 138.401C99.3224 137.615 98.7306 136.937 97.864 136.536C97.1453 136.201 96.4161 136.126 95.6869 136.293C94.6724 136.527 93.7001 137.255 93.0765 138.226C92.9708 138.393 92.77 138.502 92.5481 138.535C92.3156 138.569 92.0831 138.51 91.914 138.385C90.9523 137.682 89.8003 137.272 88.7858 137.272Z" fill="white"/>
<path d="M14.2999 33.6888C14.2365 33.6888 14.1625 33.6804 14.0885 33.6637C13.6975 33.5716 13.465 33.2454 13.5812 32.9358C13.7609 32.4506 13.6869 31.9486 13.3804 31.5052C13.0739 31.0617 12.5667 30.7438 11.9643 30.61C11.3513 30.4677 10.7172 30.5263 10.1571 30.7689C9.59694 31.0115 9.19534 31.4131 9.02625 31.89C8.91 32.1996 8.49783 32.3836 8.1068 32.2916C7.71577 32.1996 7.49383 31.8733 7.59952 31.5637C7.88486 30.7773 8.5401 30.1331 9.43842 29.7399C10.3367 29.3467 11.383 29.2546 12.3659 29.4805C13.3593 29.7064 14.1731 30.2251 14.6698 30.9363C15.1665 31.6474 15.2827 32.4757 14.9974 33.2537C14.9128 33.5214 14.6169 33.6888 14.2999 33.6888Z" fill="white"/>
<path d="M14.0146 38.7501C13.9512 38.7501 13.8772 38.7418 13.8032 38.725C11.6684 38.2314 9.85067 37.2693 8.67758 36.006C7.43051 34.6506 7.03948 33.0778 7.58904 31.5718C7.70529 31.2623 8.11746 31.0782 8.50849 31.1702C8.89952 31.2623 9.13202 31.5886 9.01577 31.8981C8.47678 33.3706 9.18486 34.5753 9.87181 35.3199C10.8547 36.3741 12.3871 37.1856 14.2154 37.6039C14.6064 37.696 14.8389 38.0223 14.7227 38.3318C14.6381 38.5828 14.3422 38.7501 14.0146 38.7501Z" fill="white"/>
<path d="M7.90593 37.035C6.94421 37.035 5.94021 36.9262 4.92565 36.692C4.53462 36.5999 4.31268 36.2737 4.41837 35.9641C4.53462 35.6546 4.94679 35.4705 5.33782 35.5625C9.17414 36.441 12.7145 35.3115 13.5812 32.9439C13.6974 32.6343 14.1096 32.4586 14.5006 32.5423C14.8916 32.6343 15.1241 32.9606 15.0079 33.2702C14.1413 35.6211 11.3195 37.035 7.90593 37.035Z" fill="white"/>
<path d="M5.13699 36.709C5.07357 36.709 4.9996 36.7006 4.92562 36.6839C3.86878 36.4412 2.87535 36.048 1.99818 35.5209C1.67056 35.3285 1.60715 34.9604 1.85022 34.7011C2.09329 34.4417 2.5583 34.3915 2.88592 34.5839C3.62571 35.0273 4.45004 35.3536 5.33778 35.5544C5.72881 35.6464 5.96132 35.9727 5.84507 36.2823C5.74995 36.5416 5.45404 36.709 5.13699 36.709Z" fill="white"/>
<path d="M23.1772 35.7298C23.1138 35.7298 23.0398 35.7214 22.9658 35.7047C22.5748 35.6127 22.3529 35.2864 22.4585 34.9768C22.6382 34.4916 22.5642 33.9896 22.2577 33.5462C21.9513 33.1028 21.444 32.7848 20.8416 32.651C20.2286 32.5088 19.5945 32.5673 19.0344 32.8099C18.4743 33.0526 18.0727 33.4541 17.9036 33.931C17.7873 34.2406 17.3751 34.4246 16.9841 34.3326C16.5931 34.2406 16.3712 33.9143 16.4768 33.6047C16.7622 32.8183 17.4174 32.1741 18.3157 31.7809C19.214 31.3877 20.2603 31.2956 21.2432 31.5215C22.2366 31.7474 23.0504 32.2661 23.5471 32.9773C24.0438 33.6884 24.1601 34.5167 23.8747 35.2947C23.8007 35.5625 23.5048 35.7298 23.1772 35.7298Z" fill="white"/>
<path d="M22.9025 40.7833C22.8285 40.7833 22.7651 40.7749 22.6911 40.7582C18.0516 39.6957 15.3778 36.6169 16.4875 33.605C16.6037 33.2954 17.0159 33.1198 17.4069 33.2034C17.7979 33.2954 18.0199 33.6217 17.9142 33.9313C17.0476 36.3073 19.2775 38.7587 23.1138 39.6371C23.5049 39.7291 23.7268 40.0554 23.6211 40.365C23.5154 40.616 23.2195 40.7833 22.9025 40.7833Z" fill="white"/>
<path d="M16.7412 39.0598C15.7795 39.0598 14.7861 38.9511 13.8138 38.7252C13.4228 38.6332 13.1902 38.3069 13.3065 37.9973C13.4228 37.6878 13.8349 37.5121 14.2259 37.5957C16.0437 38.014 17.8932 37.9806 19.4362 37.5037C20.5247 37.169 21.9303 36.4495 22.4693 34.9771C22.5855 34.6675 22.9977 34.4918 23.3887 34.5755C23.7798 34.6675 24.0017 34.9938 23.896 35.3034C23.3465 36.8093 21.9514 37.9806 19.9857 38.5913C18.9817 38.9009 17.8826 39.0598 16.7412 39.0598Z" fill="white"/>
<path d="M25.196 41.0426C24.3506 41.0426 23.5157 40.9506 22.7019 40.7582C22.3109 40.6662 22.0889 40.3399 22.1946 40.0303C22.3109 39.7208 22.7125 39.5367 23.1141 39.6287C24.0018 39.8295 24.9213 39.9048 25.8407 39.8379C26.2423 39.8128 26.6016 40.0471 26.6439 40.3733C26.6756 40.6996 26.3797 40.9757 25.9675 41.0092C25.7033 41.0343 25.4497 41.0426 25.196 41.0426Z" fill="white"/>
<path d="M6.5427 116.247C5.34847 116.247 4.14367 115.988 3.0657 115.452C0.000866273 113.93 -0.918583 110.717 1.00486 108.299C2.92831 105.873 6.976 105.137 10.0408 106.668C13.1057 108.191 14.0251 111.403 12.1017 113.821C10.8652 115.386 8.73035 116.247 6.5427 116.247ZM6.56383 107.044C4.87289 107.044 3.22422 107.714 2.2625 108.927C0.772359 110.801 1.49101 113.286 3.85833 114.465C5.01028 115.034 6.36303 115.218 7.68408 114.984C9.00513 114.741 10.1359 114.114 10.8546 113.202C12.3447 111.328 11.6261 108.843 9.25877 107.663C8.4133 107.245 7.48328 107.044 6.56383 107.044Z" fill="white"/>
<path d="M35.0669 24.7198C35.0247 24.7198 34.9824 24.7198 34.9401 24.7115C31.9281 24.3015 29.2966 22.988 27.5317 21.0136C25.7668 19.0391 25.0798 16.638 25.5977 14.2452C25.6716 13.9273 26.0521 13.7098 26.4537 13.7683C26.8553 13.8269 27.1301 14.1281 27.0561 14.446C26.6017 16.5208 27.2041 18.6124 28.747 20.3359C30.29 22.0593 32.5728 23.1972 35.2043 23.5569C35.6059 23.6155 35.8807 23.9167 35.8067 24.2346C35.7327 24.519 35.4157 24.7198 35.0669 24.7198Z" fill="white"/>
<path d="M218.777 11.6266C218.47 11.6266 218.175 11.4676 218.079 11.225C217.953 10.9154 218.164 10.5892 218.544 10.4804C220.077 10.0788 221.313 9.22545 222.032 8.08763C222.751 6.94981 222.867 5.65303 222.36 4.43991C221.852 3.2268 220.774 2.24794 219.337 1.67903C217.9 1.11012 216.262 1.01809 214.729 1.41967C214.338 1.52007 213.926 1.35274 213.799 1.05155C213.672 0.741999 213.884 0.415713 214.264 0.306951C216.167 -0.195028 218.206 -0.0778998 220.003 0.633237C221.799 1.34437 223.131 2.56586 223.765 4.07179C224.399 5.57773 224.251 7.19243 223.353 8.6147C222.455 10.037 220.912 11.0911 219.009 11.5931C218.935 11.6182 218.851 11.6266 218.777 11.6266Z" fill="white"/>
<path d="M112.332 12.4131C112.142 12.4131 111.962 12.3546 111.814 12.2458C111.518 12.0199 111.518 11.6518 111.804 11.4175L123.049 2.24804C123.334 2.01378 123.799 2.01378 124.095 2.23968C124.391 2.46557 124.391 2.83368 124.105 3.06794L112.861 12.2374C112.723 12.3462 112.522 12.4131 112.332 12.4131Z" fill="white"/>
<path d="M48.5729 159.158C48.4461 158.932 48.3616 158.439 48.3616 158.439L47.2625 146.609L57.8414 155.009L57.8203 155.017C58.0528 155.184 58.2641 155.377 58.391 155.603C59.1836 156.975 57.63 158.891 54.914 159.87C52.2085 160.848 49.3656 160.53 48.5729 159.158Z" fill="white"/>
<path d="M51.7962 161.032C49.9996 161.032 48.5095 160.463 47.8965 159.401C47.7274 159.117 47.6428 158.648 47.6217 158.514L46.512 146.659C46.4909 146.416 46.66 146.182 46.9453 146.082C47.2307 145.981 47.5583 146.032 47.7802 146.199L58.3592 154.599C58.4015 154.632 58.4332 154.666 58.4649 154.707C58.7291 154.917 58.9193 155.134 59.0567 155.36C60.0396 157.05 58.3486 159.267 55.2204 160.405C54.0579 160.823 52.8742 161.032 51.7962 161.032ZM49.2492 158.916C49.8622 159.978 52.3141 160.171 54.618 159.334C56.9113 158.506 58.3381 156.908 57.7251 155.845C57.6511 155.72 57.5243 155.594 57.3235 155.452C57.2706 155.41 57.2178 155.36 57.1755 155.31L48.1396 148.14L49.1013 158.397C49.133 158.556 49.1964 158.832 49.2492 158.916Z" fill="white"/>
<path d="M52.05 154.892C54.7661 153.913 57.5984 154.231 58.4016 155.603C59.1943 156.975 57.6407 158.882 54.9246 159.87C52.2086 160.848 49.3762 160.531 48.573 159.158C47.7804 157.786 49.334 155.871 52.05 154.892Z" fill="white"/>
<path d="M51.8069 161.024C51.511 161.024 51.2151 161.007 50.9297 160.974C49.4713 160.815 48.4039 160.254 47.9072 159.401C47.4104 158.548 47.5795 157.544 48.3827 156.556C49.1119 155.661 50.3062 154.875 51.7435 154.356C54.8717 153.227 58.0951 153.662 59.0674 155.36C59.5641 156.213 59.395 157.217 58.5918 158.204C57.8626 159.1 56.6683 159.886 55.231 160.405C54.1002 160.806 52.9166 161.024 51.8069 161.024ZM55.1782 154.908C54.3116 154.908 53.3182 155.075 52.3564 155.427C51.1728 155.854 50.2005 156.481 49.6192 157.201C49.1014 157.836 48.9746 158.447 49.2493 158.924C49.5241 159.401 50.1899 159.719 51.1305 159.828C52.1873 159.945 53.4238 159.777 54.6075 159.342C55.7912 158.916 56.7635 158.288 57.3447 157.569C57.8626 156.941 57.9894 156.33 57.7146 155.854C57.3659 155.234 56.383 154.908 55.1782 154.908Z" fill="white"/>
<path d="M257.172 156.782C256.929 156.782 256.686 156.682 256.548 156.506L247.808 145.588C247.586 145.312 247.692 144.952 248.041 144.777C248.39 144.601 248.844 144.685 249.066 144.961L257.806 155.879C258.028 156.155 257.922 156.515 257.574 156.69C257.447 156.757 257.309 156.782 257.172 156.782Z" fill="white"/>
<path d="M218.766 154.289C218.46 154.289 218.164 154.13 218.069 153.887C217.942 153.578 218.153 153.252 218.534 153.151C221.937 152.256 223.786 149.328 222.655 146.634C222.106 145.329 220.943 144.266 219.39 143.655C217.836 143.036 216.071 142.936 214.423 143.371C214.032 143.471 213.619 143.304 213.493 143.003C213.366 142.693 213.577 142.367 213.958 142.267C215.976 141.731 218.143 141.857 220.056 142.61C221.968 143.363 223.385 144.668 224.061 146.266C224.737 147.872 224.579 149.579 223.628 151.093C222.676 152.607 221.028 153.728 219.009 154.264C218.925 154.281 218.84 154.289 218.766 154.289Z" fill="white"/>
<path d="M112.311 154.724C112.121 154.724 111.941 154.666 111.793 154.557C111.497 154.331 111.497 153.963 111.783 153.729L123.07 144.526C123.355 144.291 123.82 144.283 124.116 144.517C124.412 144.743 124.412 145.111 124.127 145.346L112.839 154.548C112.692 154.666 112.501 154.724 112.311 154.724Z" fill="white"/>
<path d="M154.817 25.5566C154.605 25.5566 154.405 25.4897 154.257 25.3474L151.879 23.1304C151.615 22.8877 151.657 22.5113 151.963 22.3021C152.28 22.0929 152.745 22.1264 153.01 22.369L155.387 24.5861C155.652 24.8287 155.609 25.2052 155.303 25.4144C155.155 25.5064 154.986 25.5566 154.817 25.5566Z" fill="white"/>
<path d="M146.943 18.2192C146.732 18.2192 146.531 18.1523 146.383 18.01L144.005 15.793C143.741 15.5503 143.783 15.1739 144.09 14.9647C144.396 14.7555 144.872 14.789 145.136 15.0316L147.514 17.2487C147.778 17.4913 147.736 17.8678 147.43 18.077C147.282 18.1774 147.113 18.2192 146.943 18.2192Z" fill="white"/>
<path d="M147.028 26.6773C146.944 26.6773 146.859 26.669 146.775 26.6439C146.394 26.5351 146.193 26.2005 146.331 25.8993L147.567 23.1635C147.705 22.8623 148.127 22.7033 148.508 22.8121C148.888 22.9209 149.089 23.2555 148.952 23.5567L147.715 26.2925C147.62 26.5351 147.335 26.6773 147.028 26.6773Z" fill="white"/>
<path d="M151.118 17.6168C151.034 17.6168 150.949 17.6084 150.865 17.5833C150.484 17.4746 150.283 17.1399 150.421 16.8387L151.657 14.1029C151.795 13.8018 152.217 13.6428 152.598 13.7516C152.978 13.8603 153.179 14.195 153.042 14.4962L151.805 17.2319C151.7 17.4662 151.414 17.6168 151.118 17.6168Z" fill="white"/>
<path d="M141.903 21.9087C141.554 21.9087 141.237 21.7079 141.173 21.4318C141.099 21.1139 141.364 20.8043 141.765 20.7541L145.38 20.2354C145.781 20.1768 146.172 20.386 146.236 20.7039C146.31 21.0218 146.045 21.3314 145.644 21.3816L142.029 21.9003C141.987 21.9003 141.945 21.9087 141.903 21.9087Z" fill="white"/>
<path d="M153.866 20.1767C153.517 20.1767 153.2 19.976 153.137 19.6999C153.063 19.3819 153.327 19.0724 153.729 19.0222L157.343 18.5035C157.745 18.4449 158.136 18.6541 158.199 18.972C158.273 19.2899 158.009 19.5995 157.607 19.6497L153.993 20.1684C153.951 20.1767 153.908 20.1767 153.866 20.1767Z" fill="white"/>
<path d="M206.729 101.222C206.465 101.222 206.211 101.113 206.074 100.92L200.874 93.3824C200.673 93.0979 200.811 92.7465 201.17 92.5876C201.529 92.4286 201.973 92.5374 202.174 92.8218L207.025 99.8412L215.892 96.001C216.251 95.8421 216.695 95.9508 216.896 96.2353C217.097 96.5197 216.959 96.8711 216.6 97.0301L207.078 101.146C206.972 101.196 206.845 101.222 206.729 101.222Z" fill="white"/>
<path d="M179.167 142.283C179.156 142.283 179.156 142.283 179.167 142.283C178.754 142.283 178.427 142.016 178.427 141.689L178.511 134.419C178.511 134.218 178.638 134.034 178.849 133.934C179.061 133.825 179.325 133.817 179.558 133.892L186.195 136.26L186.268 129.884C186.268 129.566 186.607 129.307 187.008 129.307C187.008 129.307 187.008 129.307 187.019 129.307C187.431 129.307 187.759 129.575 187.748 129.901L187.664 137.18C187.664 137.381 187.537 137.565 187.325 137.665C187.114 137.774 186.85 137.791 186.617 137.707L179.98 135.339L179.906 141.714C179.896 142.024 179.568 142.283 179.167 142.283Z" fill="white"/>
<path d="M214.771 60.1682C214.602 60.1682 214.444 60.1263 214.306 60.0427L208.578 56.4117C208.261 56.2109 208.208 55.8428 208.462 55.5918C208.716 55.3408 209.181 55.299 209.498 55.4998L214.645 58.771L218.745 54.7133C218.872 54.5878 219.052 54.5125 219.242 54.4958C219.432 54.4791 219.633 54.5209 219.781 54.6213L224.928 57.8925L229.028 53.8349C229.282 53.5839 229.747 53.542 230.064 53.7428C230.381 53.9436 230.434 54.3117 230.18 54.5627L225.615 59.0805C225.488 59.1977 225.308 59.2813 225.118 59.2981C224.928 59.3148 224.727 59.273 224.579 59.1726L219.432 55.9013L215.332 59.959C215.205 60.0845 215.025 60.1598 214.835 60.1765C214.824 60.1682 214.793 60.1682 214.771 60.1682Z" fill="white"/>
<path d="M221.039 124.656C220.764 124.656 220.51 124.538 220.373 124.329L217.308 119.51L211.21 121.936C210.84 122.079 210.396 121.962 210.217 121.677L207.152 116.85L201.054 119.276C200.684 119.418 200.24 119.309 200.061 119.017L196.996 114.198L190.898 116.624C190.528 116.766 190.084 116.657 189.904 116.364C189.725 116.08 189.862 115.72 190.232 115.578L196.985 112.884C197.344 112.734 197.799 112.851 197.979 113.143L201.043 117.971L207.141 115.545C207.501 115.394 207.955 115.511 208.135 115.804L211.2 120.623L217.298 118.197C217.667 118.046 218.101 118.163 218.291 118.456L221.694 123.802C221.874 124.087 221.736 124.446 221.366 124.589C221.271 124.639 221.155 124.656 221.039 124.656Z" fill="white"/>
<path d="M56.8586 133.507C56.288 133.507 55.7173 133.407 55.1783 133.206C54.2166 132.846 53.4979 132.219 53.128 131.432C52.9906 131.131 53.1914 130.788 53.5719 130.679C53.9523 130.57 54.3751 130.729 54.523 131.031C54.745 131.524 55.1994 131.917 55.8018 132.143C56.4042 132.369 57.0806 132.394 57.7041 132.21C58.9935 131.842 59.6593 130.713 59.1943 129.692C59.0569 129.391 59.2577 129.048 59.6381 128.939C60.0186 128.83 60.4413 128.989 60.5893 129.29C61.3291 130.922 60.2617 132.721 58.2114 133.306C57.7675 133.44 57.3131 133.507 56.8586 133.507Z" fill="white"/>
<path d="M59.8919 130.077C59.5854 130.077 59.3001 129.926 59.1944 129.692C58.5074 128.186 56.9856 127.525 55.8231 127.224C54.185 126.806 52.2615 126.873 50.4121 127.4C50.0316 127.509 49.6089 127.35 49.4609 127.048C49.3235 126.747 49.5243 126.413 49.9048 126.296C52.0607 125.676 54.3224 125.609 56.2775 126.103C58.3595 126.63 59.8919 127.76 60.5894 129.282C60.7268 129.583 60.526 129.926 60.1455 130.035C60.061 130.069 59.9764 130.077 59.8919 130.077Z" fill="white"/>
<path d="M53.8257 131.817C53.5192 131.817 53.2339 131.667 53.1282 131.432C52.4307 129.91 52.6949 128.262 53.868 126.806C54.9671 125.442 56.7637 124.346 58.9197 123.735C59.3001 123.627 59.7229 123.786 59.8708 124.087C60.0082 124.388 59.8074 124.731 59.4269 124.84C57.5775 125.367 56.0451 126.296 55.115 127.442C54.4598 128.253 53.8257 129.533 54.5127 131.039C54.65 131.34 54.4492 131.683 54.0688 131.792C53.9948 131.801 53.9103 131.817 53.8257 131.817Z" fill="white"/>
<path d="M59.1732 124.865C58.8667 124.865 58.5814 124.714 58.4757 124.48C58.3383 124.179 58.5391 123.844 58.9195 123.727C59.9975 123.417 61.1283 123.275 62.2591 123.292C62.6713 123.3 62.9884 123.568 62.9884 123.886C62.9778 124.212 62.6502 124.463 62.238 124.463C61.2869 124.446 60.3251 124.572 59.4268 124.831C59.3423 124.856 59.2577 124.865 59.1732 124.865Z" fill="white"/>
<path d="M47.8439 136.084C47.2732 136.084 46.7025 135.983 46.1635 135.783C45.2018 135.423 44.4831 134.795 44.1132 134.009C43.9759 133.708 44.1766 133.365 44.5571 133.256C44.9376 133.147 45.3603 133.306 45.5083 133.607C45.7302 134.101 46.1846 134.494 46.787 134.72C47.3894 134.946 48.0658 134.971 48.6893 134.787C49.9787 134.419 50.6445 133.289 50.1795 132.269C50.0421 131.967 50.2429 131.633 50.6234 131.516C51.0038 131.407 51.4371 131.566 51.5745 131.867C52.3143 133.499 51.2469 135.297 49.1966 135.883C48.7528 136.017 48.2983 136.084 47.8439 136.084Z" fill="white"/>
<path d="M50.8769 132.662C50.5704 132.662 50.285 132.511 50.1794 132.277C49.4924 130.771 47.9706 130.11 46.808 129.809C45.1699 129.391 43.2465 129.458 41.397 129.985C41.0166 130.094 40.5938 129.935 40.4459 129.633C40.3085 129.332 40.5093 128.998 40.8898 128.88C43.0457 128.261 45.3073 128.194 47.2625 128.688C49.3445 129.215 50.8769 130.345 51.5744 131.867C51.7118 132.168 51.511 132.511 51.1305 132.62C51.046 132.645 50.9614 132.662 50.8769 132.662Z" fill="white"/>
<path d="M44.8108 134.394C44.5043 134.394 44.219 134.243 44.1133 134.009C43.4158 132.486 43.68 130.838 44.8531 129.383C45.9522 128.019 47.7488 126.923 49.9048 126.312C50.2852 126.203 50.708 126.362 50.8559 126.663C50.9933 126.965 50.7925 127.308 50.4121 127.416C48.5626 127.944 47.0302 128.872 46.1002 130.018C45.4449 130.83 44.8108 132.11 45.4978 133.616C45.6351 133.917 45.4343 134.26 45.0539 134.369C44.9799 134.386 44.8954 134.394 44.8108 134.394Z" fill="white"/>
<path d="M38.4593 131.273C38.2479 131.273 38.0471 131.206 37.8992 131.072C37.635 130.83 37.6667 130.462 37.9732 130.244C38.8398 129.65 39.8226 129.198 40.9006 128.889C41.2811 128.78 41.7144 128.939 41.8518 129.24C41.9892 129.541 41.7884 129.876 41.4079 129.993C40.5096 130.252 39.6852 130.637 38.9455 131.131C38.7975 131.223 38.6284 131.273 38.4593 131.273Z" fill="white"/>
<path d="M160.788 57.1393C160.64 57.1393 160.503 57.1225 160.355 57.0891C159.594 56.8966 159.171 56.2524 159.414 55.6501C159.657 55.0477 160.461 54.713 161.222 54.9055C161.983 55.0979 162.405 55.7421 162.162 56.3445C161.972 56.8297 161.401 57.1393 160.788 57.1393ZM160.799 55.968C160.788 55.968 160.767 55.9763 160.767 55.9847L160.587 56.5285L160.799 55.968Z" fill="white"/>
<path d="M28.525 74.0144C28.377 74.0144 28.2291 73.9976 28.0811 73.9558C27.299 73.7634 26.8657 73.0941 27.1088 72.475C27.2251 72.1738 27.4893 71.9312 27.838 71.7889C28.1868 71.6467 28.5884 71.6132 28.9688 71.7136C29.3493 71.8057 29.6558 72.0148 29.8355 72.2909C30.0151 72.567 30.0468 72.8849 29.9306 73.1861C29.7403 73.6965 29.1485 74.0144 28.525 74.0144Z" fill="white"/>
<path d="M158.305 138.452C158.157 138.452 158.009 138.435 157.861 138.393C157.089 138.201 156.656 137.54 156.899 136.929C157.015 136.628 157.28 136.385 157.628 136.243C157.977 136.101 158.379 136.075 158.749 136.168C159.119 136.26 159.425 136.469 159.615 136.745C159.795 137.021 159.827 137.339 159.71 137.632C159.594 137.933 159.33 138.175 158.981 138.318C158.77 138.41 158.537 138.452 158.305 138.452ZM158.305 137.28L158.083 137.841L158.305 137.28Z" fill="white"/>
<path d="M82.8361 46.6898C82.6881 46.6898 82.5402 46.6731 82.4028 46.6396C82.0329 46.5476 81.737 46.3468 81.5573 46.0791C81.3776 45.8114 81.3459 45.5018 81.4622 45.209C81.5784 44.9162 81.8321 44.6819 82.1703 44.5397C82.5085 44.3975 82.8995 44.3724 83.2694 44.4644C83.6393 44.5564 83.9352 44.7572 84.1148 45.0249C84.2945 45.2927 84.3262 45.6022 84.21 45.895C84.0937 46.1878 83.8401 46.4221 83.5019 46.5643C83.2905 46.648 83.058 46.6898 82.8361 46.6898ZM82.8361 45.5185C82.8149 45.5185 82.8044 45.5269 82.7938 45.5436L82.8466 45.5269C82.8361 45.5185 82.8361 45.5185 82.8361 45.5185Z" fill="white"/>
<path d="M259.36 62.9203H246.804C246.392 62.9203 246.065 62.6609 246.065 62.3347C246.065 62.0084 246.392 61.749 246.804 61.749H259.36C259.772 61.749 260.099 62.0084 260.099 62.3347C260.099 62.6609 259.761 62.9203 259.36 62.9203Z" fill="white"/>
<path d="M253.082 67.8903C252.67 67.8903 252.342 67.6309 252.342 67.3046V57.3654C252.342 57.0391 252.67 56.7798 253.082 56.7798C253.494 56.7798 253.821 57.0391 253.821 57.3654V67.3046C253.821 67.6309 253.483 67.8903 253.082 67.8903Z" fill="white"/>
<path d="M145.581 130.11H133.3C132.888 130.11 132.56 129.851 132.56 129.525C132.56 129.198 132.888 128.939 133.3 128.939H145.581C145.993 128.939 146.32 129.198 146.32 129.525C146.32 129.843 145.993 130.11 145.581 130.11Z" fill="white"/>
<path d="M139.44 134.971C139.028 134.971 138.7 134.712 138.7 134.385V124.664C138.7 124.337 139.028 124.078 139.44 124.078C139.852 124.078 140.18 124.337 140.18 124.664V134.385C140.18 134.712 139.842 134.971 139.44 134.971Z" fill="white"/>
<path d="M142.558 44.8406C142.368 44.8406 142.177 44.7821 142.029 44.6649C141.744 44.439 141.744 44.0626 142.029 43.8367L150.812 36.8843C151.097 36.6584 151.573 36.6584 151.858 36.8843C152.143 37.1102 152.143 37.4866 151.858 37.7125L143.076 44.6649C142.938 44.7821 142.748 44.8406 142.558 44.8406Z" fill="white"/>
<path d="M151.34 44.8406C151.15 44.8406 150.96 44.7821 150.812 44.6649L142.029 37.7125C141.744 37.4866 141.744 37.1102 142.029 36.8843C142.315 36.6584 142.79 36.6584 143.076 36.8843L151.858 43.8367C152.143 44.0626 152.143 44.439 151.858 44.6649C151.721 44.7821 151.53 44.8406 151.34 44.8406Z" fill="white"/>
<path d="M78.1647 29.3548C77.9639 29.3548 77.7842 29.2962 77.6362 29.1791L70.5766 23.5904C70.2912 23.3645 70.2912 22.988 70.5766 22.7621L77.6362 17.1734C77.911 16.9559 78.4077 16.9559 78.6825 17.1734L85.7422 22.7621C86.0275 22.988 86.0275 23.3645 85.7422 23.5904L78.6825 29.1791C78.5451 29.2878 78.3549 29.3548 78.1647 29.3548ZM72.1407 23.172L78.1541 27.9325L84.1675 23.172L78.1647 18.4116L72.1407 23.172Z" fill="white"/>
</g>
</g>
</svg>
