<svg width="375" height="280" viewBox="0 0 375 280" fill="none" xmlns="http://www.w3.org/2000/svg">
<mask id="mask0_106_4903" style="mask-type:alpha" maskUnits="userSpaceOnUse" x="-7" y="-26" width="409" height="306">
<path d="M-7 -26H402V280H-7V-26Z" fill="#34A853"/>
</mask>
<g mask="url(#mask0_106_4903)">
<g opacity="0.06">
<path d="M102.7 136.819L110.944 125.601L113.955 134.97L123.814 132.584L125.558 141.275L136.684 139.584L128.459 150.802L102.7 136.819Z" fill="white"/>
<path d="M128.459 151.909C128.22 151.909 127.982 151.845 127.78 151.735L102.04 137.751C101.434 137.42 101.269 136.74 101.636 136.219L109.861 125C110.136 124.637 110.632 124.432 111.128 124.495C111.623 124.558 112.046 124.874 112.174 125.301L114.836 133.612L123.465 131.526C123.814 131.447 124.2 131.494 124.493 131.652C124.805 131.826 125.007 132.095 125.081 132.395L126.605 139.995L136.464 138.494C136.959 138.415 137.473 138.605 137.749 138.968C138.024 139.331 138.043 139.805 137.767 140.169L129.542 151.387C129.304 151.719 128.881 151.909 128.459 151.909ZM104.482 136.472L128.055 149.27L134.04 141.101L125.779 142.365C125.448 142.412 125.099 142.349 124.824 142.175C124.548 142.002 124.346 141.749 124.291 141.464L122.786 133.975L114.286 136.029C113.955 136.108 113.606 136.077 113.312 135.934C113.019 135.792 112.798 135.555 112.707 135.271L110.467 128.303L104.482 136.472Z" fill="white"/>
<path d="M23.902 5.91209C23.6634 5.48548 23.5349 4.55325 23.5349 4.55325L21.6071 -17.915L40.095 -1.97235L40.0583 -1.95655C40.4622 -1.64054 40.8294 -1.27713 41.0681 -0.850515C42.4634 1.75657 39.7462 5.39068 35.0095 7.25514C30.2544 9.11959 25.279 8.51918 23.902 5.91209Z" fill="white"/>
<path d="M29.5386 9.4514C26.3991 9.4514 23.8105 8.37697 22.7456 6.37031C22.4519 5.81729 22.305 4.94827 22.2683 4.67966L20.3222 -17.836C20.2855 -18.2942 20.5792 -18.7367 21.0749 -18.9263C21.5706 -19.1159 22.1397 -19.0369 22.5253 -18.7051L41.0132 -2.76237C41.0867 -2.69917 41.1417 -2.63596 41.1968 -2.55696C41.6558 -2.16195 41.9863 -1.75114 42.2249 -1.30872C43.0878 0.302925 42.7941 2.21478 41.3988 4.07924C40.132 5.78569 38.039 7.27094 35.5238 8.25057C33.4675 9.07219 31.4112 9.4514 29.5386 9.4514ZM25.0773 5.43808C26.1421 7.44474 30.4382 7.82395 34.4589 6.2439C36.5335 5.42228 38.2226 4.23725 39.2324 2.8784C40.132 1.67757 40.3706 0.508333 39.8749 -0.392295C39.7464 -0.629302 39.5261 -0.88211 39.1773 -1.15072C39.0855 -1.22972 38.9937 -1.32452 38.9202 -1.41933L23.1312 -15.0393L24.8019 4.44265C24.8569 4.75866 24.9855 5.28008 25.0773 5.43808Z" fill="white"/>
<path d="M29.9612 -2.19343C34.6979 -4.05788 39.6549 -3.45747 41.0502 -0.850386C42.4456 1.75669 39.7284 5.39081 34.9916 7.25527C30.2549 9.11972 25.2979 8.5193 23.9026 5.91222C22.5072 3.28934 25.2244 -0.328969 29.9612 -2.19343Z" fill="white"/>
<path d="M29.5387 9.4355C29.0063 9.4355 28.4922 9.4039 27.9965 9.34069C25.4629 9.02468 23.5719 7.96605 22.7273 6.3544C21.8645 4.74275 22.1582 2.8309 23.5535 0.966439C24.8203 -0.740013 26.9133 -2.22526 29.4285 -3.20489C34.8996 -5.35375 40.5176 -4.51633 42.225 -1.30883C43.9325 1.89867 40.995 6.1016 35.5239 8.25046C33.541 9.04048 31.4664 9.4355 29.5387 9.4355ZM30.4934 -1.18243C28.4188 -0.360801 26.7297 0.824235 25.7199 2.18308C24.8203 3.38391 24.5816 4.55315 25.0774 5.45378C25.5547 6.3544 26.7297 6.97062 28.382 7.17603C30.2363 7.39723 32.4027 7.08123 34.459 6.2596C38.4797 4.67955 40.9582 1.64586 39.8934 -0.376602C38.8102 -2.39906 34.5141 -2.76247 30.4934 -1.18243Z" fill="white"/>
<path d="M378.624 228.431L366.121 224.797L363.532 213.673L373.41 206.184L385.912 209.802L388.519 220.925L378.624 228.431Z" fill="white"/>
<path d="M378.624 229.536C378.477 229.536 378.348 229.521 378.22 229.473L365.717 225.855C365.277 225.729 364.964 225.413 364.873 225.018L362.266 213.894C362.174 213.499 362.339 213.104 362.67 212.851L372.565 205.346C372.914 205.077 373.391 204.998 373.832 205.125L386.335 208.743C386.775 208.869 387.088 209.185 387.179 209.58L389.786 220.704C389.878 221.099 389.713 221.494 389.382 221.747L379.487 229.252C379.23 229.442 378.918 229.536 378.624 229.536ZM367.241 223.959L378.33 227.182L387.106 220.53L384.793 210.655L373.704 207.432L364.928 214.084L367.241 223.959Z" fill="white"/>
<path d="M378.624 229.536C378.018 229.536 377.486 229.173 377.358 228.651L374.897 218.16L363.111 214.747C362.431 214.557 362.082 213.925 362.303 213.341C362.523 212.756 363.257 212.456 363.937 212.646L376.44 216.264C376.88 216.39 377.192 216.706 377.284 217.101L379.891 228.225C380.038 228.825 379.579 229.41 378.881 229.52C378.79 229.52 378.698 229.536 378.624 229.536Z" fill="white"/>
<path d="M376.017 218.412C375.668 218.412 375.301 218.286 375.044 218.033C374.567 217.575 374.622 216.88 375.154 216.469L385.05 208.964C385.582 208.569 386.39 208.6 386.867 209.059C387.345 209.517 387.29 210.212 386.757 210.623L376.862 218.128C376.623 218.318 376.329 218.412 376.017 218.412Z" fill="white"/>
<path d="M223.689 176.51L223.707 176.542C223.854 176.399 224.001 176.257 224.166 176.131C224.387 175.957 224.607 175.799 224.882 175.672C225.103 175.578 225.415 175.499 225.708 175.435C225.837 175.404 225.984 175.372 226.112 175.356C226.241 175.325 226.351 175.309 226.351 175.309L226.957 175.325C227.049 175.325 227.141 175.325 227.251 175.341L243.737 175.831L234.851 187.791C234.796 187.87 234.741 187.934 234.686 188.013L234.356 188.455L234.337 188.423C234.191 188.566 234.044 188.708 233.878 188.834C233.658 189.008 233.438 189.166 233.162 189.293C232.942 189.387 232.612 189.466 232.318 189.53C232.189 189.561 232.061 189.593 231.914 189.609C231.785 189.64 231.675 189.656 231.675 189.656L231.069 189.64C230.978 189.64 230.886 189.64 230.776 189.624L214.289 189.134L223.175 177.174C223.23 177.095 223.285 177.031 223.34 176.952L223.689 176.51Z" fill="white"/>
<path d="M231.694 190.73C231.675 190.73 231.657 190.73 231.657 190.73L231.051 190.715C230.868 190.715 230.758 190.715 230.647 190.699L214.289 190.225C213.83 190.209 213.408 189.988 213.188 189.64C212.967 189.293 212.986 188.866 213.243 188.534L222.129 176.573C222.129 176.557 222.239 176.431 222.239 176.431L222.606 175.925C222.698 175.799 222.826 175.688 222.955 175.609C223.065 175.515 223.175 175.404 223.304 175.325C223.487 175.167 223.818 174.93 224.258 174.725C224.258 174.725 224.277 174.725 224.277 174.709C224.552 174.582 224.901 174.472 225.397 174.377C225.635 174.314 225.8 174.282 225.947 174.266L226.094 174.235C226.186 174.219 226.315 174.203 226.388 174.219L226.994 174.235C227.177 174.235 227.288 174.235 227.379 174.251L243.756 174.74C244.215 174.756 244.637 174.977 244.858 175.325C245.078 175.673 245.059 176.099 244.802 176.431L235.916 188.376C235.916 188.376 235.861 188.455 235.806 188.534L235.439 189.024C235.347 189.15 235.219 189.261 235.09 189.34C234.98 189.451 234.87 189.545 234.741 189.64C234.466 189.877 234.172 190.067 233.842 190.209C233.805 190.225 233.768 190.241 233.75 190.256C233.493 190.367 233.144 190.478 232.667 190.588C232.428 190.651 232.281 190.667 232.116 190.699L231.951 190.73C231.859 190.73 231.767 190.73 231.694 190.73ZM216.621 188.076L230.849 188.503L231.088 189.624L231.125 188.518L231.584 188.534L231.896 188.471C232.318 188.376 232.483 188.329 232.538 188.297C232.557 188.281 232.575 188.281 232.593 188.266C232.704 188.218 232.832 188.123 232.997 187.997C233.144 187.886 233.236 187.792 233.328 187.697C233.365 187.665 233.401 187.618 233.438 187.586L233.585 187.397L233.695 187.428C233.75 187.397 233.824 187.365 233.897 187.349L233.713 187.254L241.424 176.858L227.196 176.431L226.957 175.309L226.92 176.415L226.461 176.399L226.149 176.463C225.69 176.557 225.525 176.621 225.488 176.636C225.488 176.636 225.47 176.636 225.47 176.652C225.341 176.715 225.213 176.794 225.048 176.937C224.901 177.047 224.809 177.142 224.717 177.237C224.681 177.268 224.644 177.316 224.607 177.347L224.46 177.537L224.368 177.505C224.295 177.537 224.24 177.569 224.166 177.584L224.368 177.695L216.621 188.076Z" fill="white"/>
<path d="M231.327 190.746C230.17 190.746 228.958 190.446 227.728 189.846C225.782 188.898 224.038 187.27 222.808 185.263C221.596 183.257 221.027 181.108 221.211 179.18C221.412 177.079 222.496 175.483 224.258 174.693C224.882 174.409 225.672 174.614 226.002 175.151C226.333 175.688 226.094 176.368 225.47 176.652C224.185 177.237 223.873 178.611 223.799 179.37C223.652 180.871 224.111 182.609 225.103 184.236C226.094 185.864 227.489 187.175 229.013 187.918C229.784 188.297 231.29 188.85 232.575 188.266C233.199 187.981 233.97 188.187 234.319 188.74C234.65 189.277 234.411 189.94 233.787 190.241C233.016 190.588 232.189 190.746 231.327 190.746Z" fill="white"/>
<path d="M16.7234 193.669L23.6633 172.117L13.841 175.325L12.0602 163.095L5.0285 184.378L14.6488 181.234L16.7234 193.669Z" fill="white"/>
<path d="M16.7235 194.775C16.6867 194.775 16.6684 194.775 16.6317 194.775C16.0258 194.744 15.5301 194.349 15.4383 193.827L13.6024 182.767L5.46916 185.422C5.01017 185.58 4.49611 185.485 4.14728 185.2C3.79845 184.916 3.65157 184.489 3.78009 184.078L10.8301 162.795C10.9953 162.29 11.5645 161.958 12.1703 161.989C12.7762 162.037 13.2719 162.432 13.3453 162.953L14.9059 173.792L23.2043 171.09C23.6633 170.948 24.1774 171.027 24.5262 171.312C24.875 171.596 25.0219 172.023 24.8934 172.434L17.9536 193.985C17.8067 194.444 17.2926 194.775 16.7235 194.775ZM14.6489 180.128C14.8692 180.128 15.1078 180.176 15.3098 180.286C15.6403 180.46 15.8789 180.745 15.934 181.076L17.1274 188.281L21.7539 173.935L14.2817 176.368C13.9145 176.494 13.4922 176.447 13.1617 176.289C12.8313 176.115 12.5926 175.815 12.5559 175.483L11.5645 168.657L6.95627 182.577L14.1899 180.223C14.3368 180.16 14.502 180.128 14.6489 180.128Z" fill="white"/>
<path d="M180.673 149.855C180.673 149.855 179.039 146.141 176.56 140.833C173.972 135.302 177.111 131.479 181.095 130.768C185.575 129.962 188.329 133.232 188.916 136.645C192.57 135.176 197.251 135.366 198.94 139.031C200.446 142.302 198.463 146.647 191.688 147.848C185.171 148.986 180.673 149.855 180.673 149.855Z" fill="white"/>
<path d="M180.673 150.961C180.141 150.961 179.663 150.676 179.48 150.25C179.48 150.25 177.846 146.537 175.367 141.243C173.99 138.289 173.99 135.445 175.385 133.217C176.524 131.384 178.507 130.104 180.838 129.677C182.839 129.314 184.749 129.63 186.346 130.578C187.998 131.558 189.228 133.185 189.871 135.144C192.111 134.528 194.369 134.528 196.242 135.16C198.041 135.776 199.4 136.977 200.152 138.621C201.034 140.532 200.887 142.665 199.73 144.483C198.335 146.71 195.562 148.275 191.946 148.922C185.465 150.06 180.967 150.929 180.967 150.945C180.857 150.961 180.765 150.961 180.673 150.961ZM182.435 131.747C182.087 131.747 181.719 131.779 181.352 131.842C179.773 132.127 178.415 133.011 177.644 134.26C176.616 135.903 176.652 138.099 177.754 140.422C179.516 144.182 180.857 147.153 181.481 148.575C183.188 148.243 186.805 147.564 191.432 146.758C194.296 146.252 196.425 145.083 197.472 143.44C198.261 142.191 198.353 140.738 197.766 139.442C197.27 138.368 196.444 137.625 195.287 137.23C193.69 136.677 191.523 136.835 189.467 137.657C189.1 137.799 188.678 137.799 188.31 137.625C187.962 137.467 187.705 137.167 187.65 136.819C187.319 134.907 186.273 133.248 184.859 132.411C184.143 131.969 183.335 131.747 182.435 131.747Z" fill="white"/>
<path d="M127.486 88.8329C121.703 88.8329 116.929 84.8512 116.782 79.8424C116.635 74.7546 121.335 70.5359 127.229 70.4095C130.111 70.3305 132.81 71.2469 134.866 72.9534C136.941 74.644 138.116 76.9351 138.189 79.4C138.336 84.4877 133.655 88.7065 127.743 88.8329C127.669 88.8329 127.578 88.8329 127.486 88.8329ZM127.486 72.6216C127.412 72.6216 127.357 72.6216 127.284 72.6216C125.117 72.669 123.08 73.4432 121.592 74.7862C120.087 76.1451 119.298 77.9147 119.353 79.795C119.463 83.6503 123.153 86.7314 127.688 86.6208C132.167 86.526 135.729 83.3027 135.619 79.4474C135.527 75.6395 131.892 72.6216 127.486 72.6216Z" fill="white"/>
<path d="M77.7315 115.757C77.5112 115.757 77.2909 115.709 77.0889 115.615C74.0045 114.098 71.783 111.649 70.8284 108.694C69.892 105.739 70.3327 102.658 72.0768 100.004C73.8393 97.3493 76.685 95.4374 80.1182 94.6158C83.5514 93.7942 87.1315 94.1892 90.2159 95.6903C90.8401 95.9905 91.0421 96.6699 90.6932 97.1913C90.3444 97.7285 89.555 97.9023 88.9491 97.6021C86.4522 96.3855 83.5514 96.0695 80.7975 96.7331C78.0436 97.3967 75.7303 98.9293 74.3166 101.078C71.3975 105.502 73.1967 111.159 78.3557 113.671C78.9799 113.971 79.1819 114.651 78.8331 115.172C78.6127 115.551 78.1721 115.757 77.7315 115.757Z" fill="white"/>
<path d="M150.619 191.836C150.472 191.836 150.325 191.82 150.178 191.773C149.517 191.568 149.168 190.936 149.407 190.351C151.169 186.132 154.75 182.751 159.468 180.839C164.186 178.927 169.492 178.722 174.394 180.239C175.055 180.444 175.404 181.076 175.165 181.661C174.927 182.23 174.192 182.53 173.513 182.324C169.253 181.013 164.645 181.187 160.551 182.846C156.457 184.505 153.354 187.444 151.812 191.109C151.628 191.552 151.151 191.836 150.619 191.836Z" fill="white"/>
<path d="M385.986 0.903283C385.564 0.903283 385.142 0.713677 384.903 0.381867L370.381 -19.3213C369.995 -19.8428 370.179 -20.5222 370.785 -20.854C371.39 -21.1858 372.18 -21.0278 372.565 -20.5064L387.088 -0.803171C387.473 -0.281755 387.29 0.397666 386.684 0.729477C386.464 0.85588 386.225 0.903283 385.986 0.903283Z" fill="white"/>
<path d="M78.7229 167.599C78.5209 167.599 78.319 167.551 78.117 167.472L57.2974 157.881C56.6732 157.597 56.4346 156.917 56.765 156.38C57.0955 155.843 57.885 155.638 58.5092 155.922L79.3287 165.513C79.953 165.797 80.1916 166.477 79.8612 167.014C79.6225 167.377 79.1819 167.599 78.7229 167.599Z" fill="white"/>
<path d="M62.7322 171.754C62.5303 171.754 62.3283 171.707 62.1264 171.628C61.5022 171.343 61.2635 170.664 61.5939 170.127L72.7381 152.209C73.0686 151.672 73.858 151.466 74.4822 151.751C75.1065 152.035 75.3451 152.714 75.0147 153.252L63.8705 171.169C63.6318 171.533 63.1912 171.754 62.7322 171.754Z" fill="white"/>
<path d="M109.879 192.058C109.567 192.058 109.273 191.963 109.016 191.773C108.484 191.362 108.447 190.667 108.906 190.209L113.239 186.038C113.716 185.579 114.524 185.532 115.056 185.943C115.589 186.354 115.626 187.049 115.167 187.507L110.834 191.678C110.595 191.931 110.228 192.058 109.879 192.058Z" fill="white"/>
<path d="M95.5406 205.883C95.2285 205.883 94.9347 205.788 94.6777 205.598C94.1453 205.188 94.1085 204.492 94.5675 204.034L98.9003 199.863C99.3777 199.405 100.185 199.373 100.718 199.768C101.25 200.179 101.287 200.874 100.828 201.332L96.4953 205.504C96.2382 205.756 95.8894 205.883 95.5406 205.883Z" fill="white"/>
<path d="M118.6 199.341C118.508 199.341 118.416 199.341 118.343 199.326L111.972 198.188C111.275 198.062 110.834 197.477 110.981 196.877C111.128 196.276 111.807 195.897 112.505 196.023L118.875 197.161C119.573 197.287 120.014 197.872 119.867 198.472C119.738 198.978 119.206 199.341 118.6 199.341Z" fill="white"/>
<path d="M97.5231 195.565C97.4313 195.565 97.3395 195.565 97.2661 195.549L90.8954 194.412C90.1977 194.285 89.7571 193.701 89.904 193.1C90.0508 192.5 90.7301 192.121 91.4278 192.247L97.7985 193.385C98.4962 193.511 98.9368 194.096 98.7899 194.696C98.6614 195.202 98.129 195.565 97.5231 195.565Z" fill="white"/>
<path d="M109.273 208.347C108.741 208.347 108.227 208.047 108.043 207.589L106.005 202.264C105.785 201.68 106.152 201.063 106.832 200.874C107.511 200.684 108.227 201 108.447 201.585L110.485 206.91C110.705 207.494 110.338 208.11 109.659 208.3C109.53 208.316 109.402 208.347 109.273 208.347Z" fill="white"/>
<path d="M102.536 190.746C102.003 190.746 101.489 190.446 101.305 189.987L99.2676 184.663C99.0473 184.078 99.4145 183.462 100.094 183.272C100.773 183.083 101.489 183.399 101.709 183.983L103.747 189.308C103.968 189.893 103.6 190.509 102.921 190.699C102.793 190.73 102.664 190.746 102.536 190.746Z" fill="white"/>
<path d="M49.1459 70.9626C49.1092 70.9626 49.0725 70.9626 49.0358 70.9626C48.3381 70.8994 47.8057 70.3622 47.8791 69.7617L49.5682 53.9455L31.1721 52.4918C30.4744 52.4286 29.942 51.8914 30.0154 51.291C30.0889 50.6748 30.6947 50.2324 31.4108 50.2956L51.0737 51.844C51.7713 51.9072 52.3038 52.4444 52.2303 53.0448L50.4311 69.9672C50.376 70.536 49.8069 70.9626 49.1459 70.9626Z" fill="white"/>
<path d="M320.719 42.0001C320.609 42.0001 320.498 41.9843 320.388 41.9685L305.701 38.6188C305.279 38.524 304.948 38.2554 304.801 37.892C304.673 37.5444 304.746 37.1494 305.021 36.8492L312.475 28.8067L299.679 25.8837C299 25.7256 298.577 25.1252 298.761 24.5248C298.945 23.9402 299.624 23.5768 300.34 23.7348L315.027 27.0845C315.45 27.1793 315.78 27.4479 315.927 27.8113C316.055 28.1589 315.982 28.5539 315.707 28.8541L308.253 36.8966L321.049 39.8197C321.729 39.9777 322.151 40.5781 321.967 41.1785C321.802 41.6683 321.288 42.0001 320.719 42.0001Z" fill="white"/>
<path d="M174.853 105.329C174.559 105.329 174.265 105.25 174.027 105.076L163.69 97.6654C163.14 97.2704 163.066 96.5752 163.525 96.1012C163.984 95.6271 164.792 95.5639 165.343 95.959L174.688 102.674L182.49 94.6317C182.949 94.1577 183.757 94.0945 184.308 94.4895L193.653 101.205L201.456 93.1623C201.915 92.6883 202.723 92.6251 203.273 93.0201C203.824 93.4151 203.898 94.1103 203.439 94.5843L194.828 103.48C194.369 103.954 193.561 104.017 193.01 103.622L183.665 96.907L175.863 104.949C175.587 105.202 175.22 105.329 174.853 105.329Z" fill="white"/>
<path d="M6.95643 140.122C6.35056 140.122 5.81814 139.758 5.68963 139.237C5.54275 138.636 6.00174 138.052 6.69939 137.941L18.5779 135.903L16.2096 125.68C16.0627 125.079 16.5217 124.495 17.2193 124.384L29.0979 122.346L26.7295 112.123C26.5826 111.523 27.0416 110.938 27.7393 110.827L39.6178 108.789L37.2494 98.5663C37.1026 97.9659 37.5615 97.3813 38.2592 97.2706C38.9569 97.1442 39.6362 97.5393 39.7647 98.1397L42.3901 109.453C42.5369 110.053 42.078 110.638 41.3803 110.748L29.5018 112.787L31.8701 123.01C32.017 123.61 31.558 124.195 30.8604 124.305L18.9818 126.344L21.3502 136.566C21.4971 137.167 21.0381 137.751 20.3404 137.862L7.1951 140.122C7.12166 140.122 7.04822 140.122 6.95643 140.122Z" fill="white"/>
<path d="M259.619 136.456C259.509 136.456 259.398 136.44 259.288 136.424L241.461 132.348C240.782 132.19 240.36 131.589 240.543 130.989L245.28 115.646C245.372 115.362 245.592 115.125 245.886 114.967C246.18 114.825 246.529 114.777 246.859 114.856L264.686 118.933C265.365 119.091 265.788 119.691 265.604 120.292L260.867 135.634C260.702 136.14 260.188 136.456 259.619 136.456ZM243.371 130.483L258.719 133.991L262.795 120.782L247.447 117.274L243.371 130.483Z" fill="white"/>
<path d="M346.257 188.708C345.853 188.708 345.449 188.629 345.082 188.455C343.833 187.886 343.356 186.559 343.998 185.484C344.31 184.963 344.843 184.584 345.504 184.41C346.165 184.236 346.844 184.284 347.45 184.552C348.056 184.821 348.496 185.279 348.698 185.848C348.9 186.401 348.845 187.001 348.533 187.523C348.074 188.281 347.193 188.708 346.257 188.708ZM346.257 186.496V186.512L347.395 187.001L346.257 186.496Z" fill="white"/>
<path d="M361.642 49.727L350.185 40.7998L361.44 39.8359L360.375 31.0193H370.619L370.546 21.2388L382.002 30.166L361.642 49.727Z" fill="white"/>
<path d="M361.641 50.833C361.329 50.833 361.017 50.7382 360.779 50.5486L349.322 41.6213C348.937 41.3211 348.808 40.8629 348.955 40.452C349.12 40.0412 349.543 39.741 350.057 39.6936L360.007 38.8404L359.071 31.1298C359.034 30.8138 359.145 30.5135 359.402 30.2765C359.64 30.0395 359.989 29.9131 360.356 29.9131H369.316L369.261 21.2387C369.261 20.7962 369.554 20.4012 370.032 20.2274C370.491 20.0536 371.041 20.1168 371.409 20.417L382.865 29.3443C383.397 29.7551 383.434 30.4503 382.957 30.9086L362.596 50.4696C362.376 50.6908 362.045 50.8172 361.697 50.833C361.697 50.833 361.678 50.833 361.641 50.833ZM353.196 41.6529L361.55 48.1627L380.184 30.2449L371.849 23.7351L371.904 31.0034C371.904 31.3036 371.776 31.588 371.537 31.7934C371.298 31.9988 370.968 32.1252 370.619 32.1252H361.807L362.725 39.7252C362.761 40.0254 362.651 40.3098 362.449 40.5469C362.229 40.7681 361.917 40.9261 361.586 40.9419L353.196 41.6529Z" fill="white"/>
<path d="M387.822 157.944C387.749 157.944 387.694 157.944 387.62 157.929L370.546 155.558C370.069 155.495 369.665 155.195 369.518 154.8L364.285 140.611C364.157 140.248 364.249 139.837 364.542 139.553C364.836 139.268 365.277 139.126 365.717 139.189L382.792 141.575C383.269 141.638 383.655 141.938 383.802 142.333L389.034 156.522C389.162 156.886 389.071 157.296 388.777 157.581C388.557 157.802 388.189 157.944 387.822 157.944ZM371.739 153.489L385.968 155.464L381.598 143.629L367.37 141.654L371.739 153.489Z" fill="white"/>
<path d="M252.495 3.44688L280.291 0.36579C282.237 0.144583 284.128 2.08804 284.513 4.71092C284.899 7.318 283.651 9.62487 281.704 9.83028L253.908 12.9114C251.962 13.1326 250.071 11.1891 249.686 8.56624C249.3 5.95916 250.549 3.66809 252.495 3.44688Z" fill="white"/>
<path d="M253.615 14.0491C251.1 14.0491 248.878 11.8054 248.401 8.72433C248.181 7.25489 248.401 5.80124 249.043 4.64781C249.76 3.35217 250.953 2.51474 252.33 2.35674L280.126 -0.724359C282.825 -1.00877 285.303 1.2981 285.799 4.5688C286.019 6.03825 285.799 7.49189 285.156 8.64533C284.44 9.94097 283.247 10.7784 281.87 10.9364L254.074 14.0175C253.927 14.0333 253.762 14.0491 253.615 14.0491ZM280.585 1.45611C280.548 1.45611 280.493 1.45611 280.456 1.45611L252.66 4.5372C252.183 4.5846 251.706 4.96382 251.375 5.58003C250.953 6.35426 250.806 7.38129 250.953 8.42412C251.265 10.5098 252.679 11.916 253.743 11.8212L281.54 8.74013C282.017 8.69273 282.494 8.31352 282.825 7.6973C283.247 6.92308 283.394 5.89605 283.247 4.85321C282.953 2.84655 281.631 1.45611 280.585 1.45611Z" fill="white"/>
<path d="M284.532 4.7111C284.918 7.33398 283.669 9.62505 281.723 9.83046C279.777 10.0517 277.886 8.1082 277.5 5.48532C277.115 2.86244 278.363 0.571373 280.309 0.365966C282.255 0.16056 284.146 2.10402 284.532 4.7111Z" fill="white"/>
<path d="M281.429 10.968C280.199 10.968 278.988 10.4308 278.033 9.45116C277.078 8.47153 276.436 7.11268 276.215 5.64324C275.995 4.17379 276.215 2.72015 276.858 1.56671C277.574 0.271073 278.767 -0.566354 280.144 -0.724359C282.843 -1.00877 285.322 1.2981 285.817 4.5688C286.038 6.03825 285.817 7.4919 285.175 8.64533C284.459 9.94097 283.265 10.7784 281.888 10.9364C281.741 10.9522 281.576 10.968 281.429 10.968ZM280.585 1.45611C280.548 1.45611 280.493 1.45611 280.456 1.45611C279.979 1.50351 279.502 1.88272 279.171 2.49894C278.749 3.27317 278.602 4.3002 278.749 5.34303C278.914 6.38586 279.355 7.34969 279.997 8.01331C280.493 8.53473 281.081 8.80333 281.54 8.74013C282.017 8.69273 282.494 8.31352 282.825 7.6973C283.247 6.92308 283.394 5.89605 283.247 4.85321C282.953 2.84655 281.631 1.45611 280.585 1.45611Z" fill="white"/>
<path d="M316.349 115.599C316.826 115.362 317.891 115.188 317.891 115.188L343.631 111.838L326.649 128.84L326.63 128.808C326.3 129.187 325.914 129.519 325.419 129.74C322.518 131.115 318.13 129.077 315.633 125.174C313.136 121.271 313.448 116.989 316.349 115.599Z" fill="white"/>
<path d="M323.417 131.273C322.811 131.273 322.169 131.194 321.526 131.036C318.846 130.372 316.22 128.381 314.513 125.711C311.612 121.208 312.145 116.341 315.725 114.635C316.331 114.351 317.34 114.161 317.634 114.098L343.429 110.748C343.961 110.685 344.494 110.906 344.751 111.301C345.008 111.712 344.953 112.202 344.604 112.565L327.622 129.566C327.548 129.63 327.475 129.693 327.401 129.74C326.979 130.167 326.538 130.483 326.043 130.704C325.253 131.083 324.372 131.273 323.417 131.273ZM316.973 116.578C314.733 117.653 314.642 121.334 316.771 124.652C318.148 126.801 320.241 128.429 322.261 128.934C322.94 129.108 323.931 129.219 324.831 128.792C325.106 128.666 325.363 128.46 325.639 128.144C325.731 128.05 325.822 127.971 325.933 127.907L340.418 113.402L318.111 116.31C317.744 116.341 317.157 116.484 316.973 116.578Z" fill="white"/>
<path d="M326.153 120.165C328.668 124.068 328.337 128.35 325.437 129.74C322.536 131.115 318.148 129.077 315.651 125.174C313.136 121.271 313.466 116.989 316.367 115.599C319.249 114.224 323.637 116.262 326.153 120.165Z" fill="white"/>
<path d="M323.417 131.273C322.811 131.273 322.169 131.194 321.526 131.036C318.846 130.372 316.22 128.381 314.513 125.711C311.612 121.208 312.145 116.341 315.725 114.635C317.524 113.782 319.764 113.877 322.004 114.935C324.06 115.899 325.933 117.574 327.273 119.644C330.174 124.147 329.641 129.013 326.061 130.72C325.253 131.083 324.372 131.273 323.417 131.273ZM318.368 116.278C317.854 116.278 317.377 116.373 316.973 116.579C314.733 117.637 314.642 121.334 316.753 124.653C318.13 126.801 320.223 128.429 322.242 128.934C322.922 129.108 323.913 129.219 324.813 128.792C327.052 127.734 327.144 124.036 325.033 120.718C323.931 119.012 322.426 117.653 320.792 116.895C319.929 116.484 319.103 116.278 318.368 116.278Z" fill="white"/>
<path d="M131.598 23.735L145.056 22.9292L152.583 32.5517L146.69 42.98L133.232 43.7858L125.687 34.1633L131.598 23.735Z" fill="white"/>
<path d="M133.232 44.8919C132.81 44.8919 132.406 44.7023 132.167 44.4021L124.622 34.7796C124.365 34.4478 124.328 34.037 124.53 33.6736L130.442 23.2453C130.644 22.8819 131.047 22.6607 131.506 22.6291L144.964 21.8232C145.441 21.7916 145.863 21.9812 146.121 22.3131L153.666 31.9355C153.923 32.2674 153.96 32.6782 153.758 33.0416L147.846 43.4699C147.644 43.8333 147.24 44.0545 146.781 44.0861L133.324 44.8919C133.287 44.8919 133.269 44.8919 133.232 44.8919ZM127.174 34.0686L133.893 42.6325L145.863 41.9057L151.133 32.615L144.413 24.0511L132.443 24.7779L127.174 34.0686Z" fill="white"/>
<path d="M139.144 34.4634C138.722 34.4634 138.318 34.2738 138.079 33.9736L130.533 24.3511C130.13 23.8455 130.295 23.1502 130.882 22.8184C131.47 22.4866 132.278 22.613 132.663 23.1186L139.787 32.2039L152.491 31.4455C153.207 31.3981 153.813 31.8563 153.868 32.4725C153.923 33.0887 153.391 33.6102 152.675 33.6576L139.217 34.4634C139.199 34.4634 139.162 34.4634 139.144 34.4634Z" fill="white"/>
<path d="M133.232 44.8918C133.048 44.8918 132.846 44.8602 132.663 44.7812C132.02 44.5126 131.763 43.849 132.075 43.296L137.987 32.8676C138.299 32.3146 139.07 32.0934 139.713 32.362C140.355 32.6306 140.612 33.2942 140.3 33.8473L134.389 44.2756C134.168 44.6706 133.709 44.8918 133.232 44.8918Z" fill="white"/>
<path d="M264.006 47.7358L247.079 63.7417L257.213 64.6582L252.532 75.8923L269.404 60.1392L259.49 59.2544L264.006 47.7358Z" fill="white"/>
<path d="M252.532 76.9984C252.311 76.9984 252.073 76.951 251.871 76.8404C251.338 76.5718 251.118 76.0188 251.32 75.529L255.451 65.6221L246.95 64.8479C246.473 64.8005 246.051 64.5319 245.885 64.1368C245.72 63.7418 245.812 63.3152 246.142 62.9992L263.07 46.9933C263.474 46.5983 264.153 46.5193 264.667 46.7879C265.2 47.0565 265.438 47.5937 265.236 48.0994L261.234 58.3065L269.551 59.0649C270.028 59.1123 270.45 59.3809 270.616 59.7759C270.781 60.1709 270.689 60.6133 270.359 60.9135L253.486 76.6508C253.229 76.872 252.88 76.9984 252.532 76.9984ZM249.741 62.8728L257.342 63.568C257.727 63.5996 258.094 63.7892 258.296 64.0736C258.498 64.358 258.553 64.7215 258.425 65.0375L255.891 71.1365L266.742 61.0083L259.38 60.3447C258.994 60.3131 258.645 60.1235 258.425 59.8391C258.205 59.5547 258.168 59.2071 258.296 58.8911L260.848 52.3813L249.741 62.8728Z" fill="white"/>
<path d="M103.269 250.156C103.269 250.156 99.0835 247.991 93.0066 244.973C86.6726 241.829 86.3604 236.899 89.1327 234.071C92.2355 230.879 97.0089 232.049 100.093 234.561C102.021 231.29 106.042 228.809 110.209 230.911C113.936 232.775 115.589 237.5 110.87 242.303C106.354 246.901 103.269 250.156 103.269 250.156Z" fill="white"/>
<path d="M103.27 251.262C103.049 251.262 102.811 251.214 102.609 251.104C102.572 251.088 98.3677 248.908 92.3825 245.937C89.0227 244.278 86.8747 241.924 86.3422 239.301C85.9016 237.168 86.5626 235.003 88.1782 233.36C89.5551 231.938 91.3544 231.148 93.3739 231.037C95.4852 230.927 97.7618 231.59 99.7813 232.87C101.177 231.085 103.049 229.789 105.087 229.283C107.033 228.794 109.034 229.015 110.889 229.947C113.037 231.021 114.524 232.87 114.946 235.003C115.46 237.626 114.377 240.454 111.862 243.014C107.382 247.549 104.298 250.819 104.261 250.851C104.022 251.12 103.637 251.262 103.27 251.262ZM93.7962 233.249C93.7044 233.249 93.5942 233.249 93.5024 233.249C92.1805 233.312 91.0423 233.834 90.1243 234.782C89.0044 235.92 88.5454 237.436 88.8575 238.922C89.2614 240.881 90.9688 242.682 93.6493 244.025C98.0005 246.174 101.397 247.912 102.976 248.718C104.133 247.501 106.666 244.863 109.897 241.576C111.899 239.538 112.798 237.342 112.394 235.382C112.1 233.897 111.072 232.617 109.567 231.859C108.318 231.227 107.052 231.085 105.785 231.401C104.022 231.843 102.333 233.218 101.25 235.051C101.066 235.367 100.718 235.572 100.332 235.635C99.9282 235.698 99.5243 235.588 99.2306 235.351C97.5599 234.023 95.5587 233.249 93.7962 233.249Z" fill="white"/>
<path d="M0.475593 20.6857C0.402155 20.6857 0.32872 20.6857 0.255282 20.6699C-4.97715 19.8957 -9.54864 17.415 -12.6147 13.6861C-15.6807 9.95718 -16.874 5.42244 -15.9744 0.903504C-15.8459 0.303085 -15.185 -0.107727 -14.4873 0.00287667C-13.7897 0.11348 -13.3123 0.682297 -13.4408 1.28271C-14.2303 5.20123 -13.1838 9.15135 -10.5033 12.4063C-7.82285 15.6612 -3.85722 17.81 0.714267 18.4894C1.41192 18.6 1.88927 19.1689 1.76075 19.7693C1.63224 20.3065 1.08145 20.6857 0.475593 20.6857Z" fill="white"/>
<path d="M23.9385 274.584C23.7182 274.157 23.5713 273.225 23.5713 273.225L21.6619 250.883L40.0397 266.747L40.003 266.762C40.4069 267.078 40.7741 267.442 40.9944 267.868C42.3713 270.46 39.6725 274.078 34.9541 275.927C30.2541 277.775 25.3154 277.175 23.9385 274.584Z" fill="white"/>
<path d="M29.5381 278.123C26.417 278.123 23.8284 277.048 22.7635 275.042C22.4698 274.504 22.3229 273.62 22.2862 273.367L20.3584 250.978C20.3217 250.519 20.6155 250.077 21.1112 249.887C21.6069 249.698 22.176 249.793 22.5616 250.109L40.9393 265.972C41.0128 266.035 41.0678 266.099 41.1229 266.178C41.5819 266.573 41.9124 266.983 42.151 267.41C43.8585 270.602 40.921 274.789 35.4866 276.938C33.467 277.728 31.4108 278.123 29.5381 278.123ZM25.1135 274.125C26.1784 276.132 30.4377 276.495 34.4401 274.915C38.4241 273.351 40.9026 270.333 39.8378 268.326C39.7092 268.089 39.4889 267.852 39.1401 267.584C39.0483 267.505 38.9565 267.41 38.8831 267.315L23.1858 253.774L24.8565 273.146C24.9116 273.446 25.0217 273.967 25.1135 274.125Z" fill="white"/>
<path d="M29.9789 266.525C34.6973 264.676 39.6176 265.277 41.0129 267.868C42.3899 270.459 39.691 274.062 34.9727 275.926C30.2543 277.775 25.334 277.174 23.9387 274.583C22.5617 271.992 25.2605 268.373 29.9789 266.525Z" fill="white"/>
<path d="M29.5565 278.107C29.0425 278.107 28.5284 278.075 28.0327 278.012C25.4991 277.712 23.6448 276.653 22.7819 275.041C21.919 273.43 22.2128 271.534 23.6081 269.669C24.8749 267.979 26.9495 266.493 29.4464 265.514C34.8808 263.381 40.4804 264.202 42.1694 267.41C43.0323 269.021 42.7386 270.918 41.3433 272.782C40.0765 274.473 38.0019 275.958 35.505 276.937C33.5405 277.696 31.4843 278.107 29.5565 278.107ZM35.4132 266.557C33.9077 266.557 32.1819 266.873 30.5112 267.536C28.455 268.342 26.7659 269.527 25.7561 270.886C24.8565 272.087 24.6362 273.24 25.1135 274.141C25.5909 275.041 26.7475 275.642 28.3815 275.847C30.2175 276.068 32.3655 275.752 34.4218 274.931C36.478 274.125 38.1671 272.94 39.1769 271.581C40.0765 270.396 40.2968 269.243 39.8194 268.342C39.2136 267.173 37.5061 266.557 35.4132 266.557Z" fill="white"/>
<path d="M386.317 270.096C385.894 270.096 385.472 269.906 385.234 269.575L370.05 248.955C369.665 248.434 369.848 247.754 370.454 247.422C371.06 247.091 371.849 247.249 372.235 247.77L387.418 268.39C387.804 268.911 387.62 269.59 387.014 269.922C386.794 270.049 386.555 270.096 386.317 270.096Z" fill="white"/>
<path d="M319.598 265.388C319.066 265.388 318.552 265.088 318.386 264.63C318.166 264.045 318.533 263.429 319.194 263.239C325.106 261.548 328.319 256.018 326.354 250.93C325.4 248.466 323.38 246.459 320.681 245.306C317.983 244.136 314.917 243.947 312.052 244.768C311.373 244.958 310.657 244.642 310.437 244.073C310.217 243.488 310.584 242.872 311.245 242.683C314.751 241.671 318.515 241.908 321.838 243.33C325.161 244.753 327.621 247.217 328.796 250.235C329.971 253.269 329.696 256.492 328.044 259.352C326.391 262.212 323.527 264.329 320.02 265.341C319.874 265.372 319.727 265.388 319.598 265.388Z" fill="white"/>
<path d="M134.664 266.209C134.334 266.209 134.022 266.098 133.765 265.893C133.251 265.466 133.251 264.771 133.746 264.329L153.354 246.948C153.85 246.506 154.658 246.49 155.172 246.932C155.686 247.359 155.686 248.054 155.19 248.497L135.582 265.877C135.325 266.098 134.995 266.209 134.664 266.209Z" fill="white"/>
<path d="M208.505 22.2655C208.138 22.2655 207.789 22.1391 207.532 21.8705L203.401 17.6833C202.942 17.2251 203.016 16.5141 203.548 16.1191C204.099 15.7241 204.907 15.7873 205.366 16.2455L209.496 20.4326C209.955 20.8908 209.882 21.6019 209.35 21.9969C209.093 22.1707 208.799 22.2655 208.505 22.2655Z" fill="white"/>
<path d="M194.827 8.40855C194.46 8.40855 194.111 8.28215 193.854 8.01354L189.724 3.82641C189.265 3.3682 189.338 2.65717 189.87 2.26216C190.403 1.86715 191.229 1.93035 191.688 2.38857L195.819 6.5757C196.278 7.03391 196.204 7.74493 195.672 8.13995C195.415 8.32955 195.121 8.40855 194.827 8.40855Z" fill="white"/>
<path d="M194.975 24.3826C194.828 24.3826 194.681 24.3668 194.534 24.3194C193.873 24.114 193.524 23.482 193.763 22.9132L195.911 17.7464C196.15 17.1776 196.884 16.8774 197.545 17.0828C198.206 17.2882 198.555 17.9202 198.316 18.489L196.168 23.6558C196.003 24.114 195.507 24.3826 194.975 24.3826Z" fill="white"/>
<path d="M202.08 7.2708C201.933 7.2708 201.786 7.255 201.639 7.2076C200.978 7.00219 200.63 6.37017 200.868 5.80136L203.016 0.634598C203.255 0.0657811 203.989 -0.234428 204.65 -0.0290219C205.311 0.176384 205.66 0.808402 205.421 1.37722L203.273 6.54398C203.09 6.98639 202.594 7.2708 202.08 7.2708Z" fill="white"/>
<path d="M186.07 15.3769C185.465 15.3769 184.914 14.9977 184.804 14.4763C184.675 13.8759 185.134 13.2912 185.832 13.1964L192.111 12.2168C192.808 12.1062 193.488 12.5012 193.598 13.1016C193.726 13.702 193.267 14.2867 192.57 14.3815L186.291 15.3611C186.217 15.3611 186.144 15.3769 186.07 15.3769Z" fill="white"/>
<path d="M206.854 12.1059C206.248 12.1059 205.697 11.7267 205.587 11.2053C205.458 10.6049 205.917 10.0202 206.615 9.92543L212.894 8.94581C213.591 8.8352 214.271 9.23021 214.381 9.83063C214.509 10.431 214.05 11.0157 213.353 11.1105L207.074 12.0901C207 12.1059 206.927 12.1059 206.854 12.1059Z" fill="white"/>
<path d="M298.687 165.165C298.228 165.165 297.788 164.96 297.549 164.597L288.516 150.36C288.167 149.823 288.406 149.16 289.03 148.859C289.655 148.559 290.426 148.765 290.774 149.302L299.201 162.558L314.605 155.306C315.229 155.006 316 155.211 316.349 155.748C316.698 156.286 316.459 156.949 315.835 157.249L299.293 165.023C299.11 165.118 298.889 165.165 298.687 165.165Z" fill="white"/>
<path d="M250.806 242.714C250.788 242.714 250.788 242.714 250.806 242.714C250.09 242.714 249.521 242.208 249.521 241.592L249.668 227.862C249.668 227.482 249.888 227.135 250.255 226.945C250.622 226.74 251.081 226.724 251.485 226.866L263.015 231.338L263.143 219.298C263.143 218.697 263.731 218.208 264.429 218.208C264.429 218.208 264.429 218.208 264.447 218.208C265.163 218.208 265.732 218.713 265.714 219.329L265.567 233.076C265.567 233.455 265.347 233.803 264.979 233.992C264.612 234.198 264.153 234.229 263.749 234.071L252.22 229.6L252.091 241.64C252.073 242.224 251.504 242.714 250.806 242.714Z" fill="white"/>
<path d="M312.659 87.6322C312.365 87.6322 312.089 87.5531 311.851 87.3951L301.9 80.5377C301.349 80.1585 301.257 79.4633 301.698 78.9893C302.139 78.5153 302.946 78.4363 303.497 78.8155L312.438 84.9935L319.562 77.3302C319.782 77.0932 320.094 76.951 320.425 76.9194C320.755 76.8878 321.104 76.9668 321.361 77.1564L330.302 83.3344L337.425 75.6712C337.866 75.1972 338.674 75.1182 339.225 75.4974C339.775 75.8766 339.867 76.5718 339.427 77.0458L331.495 85.5781C331.275 85.7993 330.963 85.9573 330.632 85.9889C330.302 86.0205 329.953 85.9415 329.696 85.7519L320.755 79.5739L313.632 87.2371C313.411 87.4741 313.099 87.6163 312.769 87.6479C312.75 87.6321 312.695 87.6322 312.659 87.6322Z" fill="white"/>
<path d="M323.546 209.422C323.069 209.422 322.628 209.201 322.389 208.806L317.065 199.705L306.472 204.287C305.829 204.555 305.058 204.334 304.746 203.797L299.422 194.68L288.828 199.262C288.186 199.531 287.415 199.325 287.102 198.772L281.778 189.671L271.185 194.253C270.542 194.522 269.771 194.317 269.459 193.764C269.147 193.226 269.386 192.547 270.028 192.278L281.76 187.191C282.384 186.906 283.174 187.127 283.486 187.68L288.81 196.797L299.403 192.215C300.027 191.931 300.817 192.152 301.129 192.705L306.453 201.806L317.047 197.224C317.689 196.939 318.442 197.161 318.772 197.714L324.684 207.81C324.996 208.347 324.758 209.027 324.115 209.295C323.95 209.39 323.748 209.422 323.546 209.422Z" fill="white"/>
<path d="M38.3323 226.139C37.3409 226.139 36.3494 225.949 35.4131 225.57C33.7424 224.891 32.494 223.706 31.8514 222.221C31.6127 221.652 31.9615 221.004 32.6225 220.798C33.2834 220.593 34.0178 220.893 34.2748 221.462C34.6604 222.394 35.4498 223.137 36.4963 223.564C37.5428 223.99 38.7178 224.038 39.801 223.69C42.0409 222.995 43.1975 220.862 42.3897 218.934C42.151 218.365 42.4998 217.717 43.1608 217.512C43.8217 217.307 44.5561 217.607 44.8131 218.176C46.0983 221.257 44.244 224.654 40.6823 225.76C39.9112 226.013 39.1217 226.139 38.3323 226.139Z" fill="white"/>
<path d="M43.6015 219.661C43.069 219.661 42.5733 219.376 42.3897 218.934C41.1964 216.09 38.5526 214.842 36.5331 214.273C33.6874 213.483 30.346 213.609 27.1331 214.605C26.4721 214.81 25.7378 214.51 25.4807 213.941C25.2421 213.372 25.5909 212.74 26.2518 212.519C29.9971 211.35 33.9261 211.223 37.3225 212.156C40.9393 213.151 43.6015 215.284 44.8132 218.16C45.0519 218.729 44.703 219.376 44.0421 219.582C43.8952 219.645 43.7483 219.661 43.6015 219.661Z" fill="white"/>
<path d="M33.0633 222.947C32.5309 222.947 32.0351 222.663 31.8516 222.22C30.6398 219.345 31.0988 216.232 33.1367 213.483C35.0461 210.907 38.1672 208.837 41.9125 207.684C42.5734 207.478 43.3078 207.779 43.5649 208.347C43.8035 208.916 43.4547 209.564 42.7938 209.77C39.5809 210.765 36.9188 212.519 35.3031 214.683C34.1648 216.216 33.0633 218.634 34.2566 221.478C34.4953 222.047 34.1465 222.694 33.4855 222.9C33.357 222.916 33.2102 222.947 33.0633 222.947Z" fill="white"/>
<path d="M42.353 209.817C41.8205 209.817 41.3248 209.533 41.1413 209.09C40.9026 208.522 41.2514 207.89 41.9123 207.668C43.785 207.084 45.7495 206.815 47.7139 206.847C48.4299 206.863 48.9807 207.368 48.9807 207.969C48.9624 208.585 48.3932 209.059 47.6772 209.059C46.0248 209.027 44.3541 209.264 42.7936 209.754C42.6467 209.801 42.4998 209.817 42.353 209.817Z" fill="white"/>
<path d="M22.672 231.006C21.6806 231.006 20.6892 230.816 19.7529 230.437C18.0822 229.758 16.8338 228.572 16.1912 227.087C15.9525 226.518 16.3013 225.871 16.9623 225.665C17.6232 225.46 18.3576 225.76 18.6146 226.329C19.0002 227.261 19.7896 228.004 20.8361 228.43C21.8826 228.857 23.0576 228.904 24.1408 228.557C26.3806 227.861 27.5373 225.728 26.7295 223.801C26.4908 223.232 26.8396 222.6 27.5006 222.379C28.1615 222.173 28.9142 222.473 29.1529 223.042C30.4381 226.123 28.5838 229.521 25.022 230.627C24.251 230.879 23.4615 231.006 22.672 231.006Z" fill="white"/>
<path d="M27.9407 224.543C27.4083 224.543 26.9126 224.259 26.729 223.816C25.5356 220.972 22.8919 219.724 20.8723 219.155C18.0266 218.365 14.6852 218.492 11.4723 219.487C10.8114 219.692 10.077 219.392 9.81996 218.823C9.58129 218.255 9.93012 217.623 10.5911 217.401C14.3364 216.232 18.2653 216.106 21.6618 217.038C25.2786 218.033 27.9407 220.166 29.1524 223.042C29.3911 223.611 29.0423 224.259 28.3813 224.464C28.2344 224.512 28.0876 224.543 27.9407 224.543Z" fill="white"/>
<path d="M17.4028 227.814C16.8703 227.814 16.3746 227.53 16.191 227.087C14.9793 224.212 15.4383 221.099 17.4762 218.35C19.3856 215.774 22.5067 213.704 26.252 212.551C26.9129 212.346 27.6473 212.646 27.9043 213.215C28.143 213.783 27.7942 214.431 27.1332 214.637C23.9203 215.632 21.2582 217.386 19.6426 219.551C18.5043 221.083 17.4028 223.501 18.5961 226.345C18.8348 226.914 18.486 227.562 17.825 227.767C17.6965 227.799 17.5496 227.814 17.4028 227.814Z" fill="white"/>
<path d="M6.36896 221.92C6.00177 221.92 5.65294 221.794 5.39591 221.541C4.93692 221.083 4.992 220.388 5.52442 219.977C7.0299 218.855 8.73732 218.002 10.61 217.417C11.2709 217.212 12.0236 217.512 12.2623 218.081C12.501 218.65 12.1522 219.282 11.4912 219.503C9.93068 219.993 8.49864 220.72 7.21349 221.652C6.95645 221.826 6.66271 221.92 6.36896 221.92Z" fill="white"/>
<path d="M218.879 81.9123C218.622 81.9123 218.383 81.8807 218.126 81.8175C216.804 81.454 216.07 80.2374 216.492 79.0998C216.914 77.9621 218.31 77.3301 219.632 77.6935C220.953 78.0569 221.688 79.2736 221.266 80.4112C220.935 81.3276 219.944 81.9123 218.879 81.9123ZM218.897 79.7002C218.879 79.7002 218.842 79.716 218.842 79.7318L218.53 80.7588L218.897 79.7002Z" fill="white"/>
<path d="M214.564 235.477C214.307 235.477 214.05 235.446 213.793 235.367C212.453 235.003 211.7 233.755 212.123 232.602C212.325 232.033 212.784 231.575 213.389 231.306C213.995 231.038 214.693 230.99 215.335 231.164C215.978 231.338 216.51 231.733 216.841 232.254C217.153 232.776 217.208 233.376 217.006 233.929C216.804 234.498 216.345 234.956 215.739 235.225C215.372 235.398 214.968 235.477 214.564 235.477ZM214.564 233.265L214.179 234.324L214.564 233.265Z" fill="white"/>
<path d="M83.4602 62.1774C83.2032 62.1774 82.9461 62.1458 82.7075 62.0826C82.0649 61.9088 81.5508 61.5296 81.2387 61.024C80.9266 60.5184 80.8715 59.9337 81.0735 59.3807C81.2754 58.8277 81.7161 58.3853 82.3036 58.1167C82.8911 57.8481 83.5704 57.8007 84.2129 57.9745C84.8555 58.1483 85.3696 58.5275 85.6817 59.0331C85.9938 59.5387 86.0489 60.1234 85.8469 60.6764C85.645 61.2294 85.2043 61.6718 84.6168 61.9404C84.2497 62.0984 83.8457 62.1774 83.4602 62.1774ZM83.4602 59.9654C83.4235 59.9654 83.4051 59.9812 83.3868 60.0128L83.4786 59.9812C83.4602 59.9654 83.4602 59.9654 83.4602 59.9654Z" fill="white"/>
<path d="M390.117 92.8302H368.306C367.59 92.8302 367.021 92.3404 367.021 91.7242C367.021 91.108 367.59 90.6182 368.306 90.6182H390.117C390.833 90.6182 391.402 91.108 391.402 91.7242C391.402 92.3404 390.815 92.8302 390.117 92.8302Z" fill="white"/>
<path d="M192.46 219.724H171.126C170.41 219.724 169.841 219.234 169.841 218.618C169.841 218.002 170.41 217.512 171.126 217.512H192.46C193.176 217.512 193.745 218.002 193.745 218.618C193.745 219.219 193.176 219.724 192.46 219.724Z" fill="white"/>
<path d="M181.793 228.904C181.077 228.904 180.508 228.414 180.508 227.798V209.438C180.508 208.822 181.077 208.332 181.793 208.332C182.509 208.332 183.078 208.822 183.078 209.438V227.798C183.078 228.414 182.49 228.904 181.793 228.904Z" fill="white"/>
<path d="M187.209 58.6856C186.878 58.6856 186.548 58.575 186.291 58.3538C185.795 57.9271 185.795 57.2161 186.291 56.7895L201.547 43.6593C202.043 43.2327 202.869 43.2327 203.365 43.6593C203.861 44.0859 203.861 44.7969 203.365 45.2236L188.108 58.3538C187.87 58.575 187.539 58.6856 187.209 58.6856Z" fill="white"/>
<path d="M202.465 58.6856C202.135 58.6856 201.804 58.575 201.547 58.3538L186.291 45.2236C185.795 44.7969 185.795 44.0859 186.291 43.6593C186.786 43.2327 187.612 43.2327 188.108 43.6593L203.365 56.7895C203.861 57.2161 203.861 57.9271 203.365 58.3538C203.126 58.575 202.796 58.6856 202.465 58.6856Z" fill="white"/>
<path d="M75.3452 29.4391C74.9964 29.4391 74.6843 29.3285 74.4272 29.1073L62.1632 18.5526C61.6675 18.126 61.6675 17.4149 62.1632 16.9883L74.4272 6.4336C74.9046 6.02279 75.7675 6.02279 76.2448 6.4336L88.5089 16.9883C89.0046 17.4149 89.0046 18.126 88.5089 18.5526L76.2448 29.1073C76.0061 29.3127 75.6757 29.4391 75.3452 29.4391ZM64.8804 17.7625L75.3268 26.753L85.7734 17.7625L75.3452 8.77207L64.8804 17.7625Z" fill="white"/>
</g>
</g>
</svg>
