<svg width="22" height="26" viewBox="0 0 22 26" fill="none" xmlns="http://www.w3.org/2000/svg">
<path d="M5.66838 25.5133C5.15577 25.1722 4.70145 24.7508 4.32288 24.2653C3.90646 23.7641 3.52064 23.2383 3.1675 22.6906C2.33882 21.4766 1.68895 20.1498 1.23782 18.7508C0.695879 17.1258 0.433441 15.5683 0.433441 14.0448C0.433441 12.3435 0.801504 10.8582 1.52138 9.61021C2.05501 8.63475 2.83959 7.8196 3.79394 7.24908C4.71882 6.67462 5.78151 6.36025 6.87007 6.33908C7.25113 6.33908 7.66144 6.39433 8.09694 6.49996C8.40976 6.58852 8.79082 6.72827 9.25638 6.90215C9.84869 7.13046 10.1745 7.27021 10.285 7.30433C10.6319 7.43108 10.9236 7.48633 11.1528 7.48633C11.3266 7.48633 11.572 7.43108 11.8507 7.34658C12.0075 7.29133 12.3033 7.19383 12.7266 7.01265C13.1458 6.8599 13.4757 6.72908 13.7381 6.63158C14.1403 6.51296 14.5295 6.40327 14.8764 6.34802C15.2877 6.28318 15.7051 6.266 16.1204 6.29683C16.8399 6.34386 17.5487 6.49635 18.2239 6.7494C19.3281 7.19383 20.2211 7.88771 20.8857 8.87408C20.6048 9.04722 20.3411 9.24693 20.0984 9.47046C19.5699 9.93893 19.1198 10.4889 18.7651 11.0995C18.3014 11.934 18.061 12.8741 18.0671 13.8287C18.0842 15.0011 18.3848 16.0338 18.9771 16.9268C19.4126 17.5886 19.9785 18.1545 20.6403 18.59C20.9791 18.8183 21.2708 18.9751 21.5503 19.0807C21.4195 19.487 21.2798 19.8802 21.1148 20.2702C20.7407 21.1448 20.2874 21.9833 19.7604 22.7751C19.2908 23.4568 18.9227 23.9646 18.6432 24.3026C18.2077 24.8186 17.7884 25.2126 17.3651 25.4873C16.8996 25.796 16.3495 25.961 15.7905 25.961C15.4119 25.9755 15.0334 25.9297 14.6693 25.8253C14.3564 25.7196 14.0469 25.6051 13.7422 25.4743C13.4254 25.3288 13.0988 25.2058 12.7648 25.1062C11.939 24.8941 11.0732 24.8927 10.2468 25.1021C9.90801 25.1996 9.58219 25.3134 9.26044 25.4531C8.80788 25.6433 8.50726 25.7708 8.33338 25.8253C7.98644 25.9268 7.6265 25.9902 7.26251 26.0113C6.69944 26.0113 6.17457 25.8505 5.65457 25.5246L5.66838 25.5133ZM13.0946 5.51358C12.3585 5.88165 11.6557 6.03846 10.9578 5.98727C10.8481 5.28446 10.9578 4.5654 11.2494 3.77808C11.4978 3.11107 11.8647 2.49448 12.3325 1.95808C12.8265 1.39341 13.426 0.930576 14.0973 0.59552C14.8123 0.227458 15.4939 0.0283955 16.1456 -0.000854492C16.2301 0.735271 16.1456 1.45921 15.875 2.24165C15.6246 2.93331 15.2584 3.57734 14.7919 4.14615C14.3159 4.71159 13.7316 5.17622 13.0735 5.51277L13.0946 5.51358Z" fill="#0D0D26"/>
</svg>
