<svg width="18" height="14" viewBox="0 0 18 14" fill="none" xmlns="http://www.w3.org/2000/svg">
<path d="M15.5333 3.05412L8.99999 7.86245L2.46665 3.05412M1.69582 1.46245C1.47481 1.46245 1.26285 1.55025 1.10657 1.70653C0.950285 1.86281 0.862488 2.07477 0.862488 2.29578V11.7166C0.862488 11.9376 0.950285 12.1496 1.10657 12.3059C1.26285 12.4622 1.47481 12.55 1.69582 12.55H16.3042C16.5252 12.55 16.7371 12.4622 16.8934 12.3059C17.0497 12.1496 17.1375 11.9376 17.1375 11.7166V2.28328C17.1375 2.06227 17.0497 1.85031 16.8934 1.69403C16.7371 1.53775 16.5252 1.44995 16.3042 1.44995H1.69582V1.46245Z" stroke="#0D0D26" stroke-linecap="round" stroke-linejoin="round"/>
</svg>
