<svg width="28" height="28" viewBox="0 0 28 28" fill="none" xmlns="http://www.w3.org/2000/svg">
<path d="M25.4398 11.7151H24.5V11.6667H14V16.3334H20.5934C19.6315 19.05 17.0468 21 14 21C10.1343 21 7.00001 17.8658 7.00001 14C7.00001 10.1343 10.1343 7.00004 14 7.00004C15.7844 7.00004 17.4078 7.67321 18.6439 8.77279L21.9438 5.47287C19.8602 3.53096 17.073 2.33337 14 2.33337C7.55709 2.33337 2.33334 7.55712 2.33334 14C2.33334 20.443 7.55709 25.6667 14 25.6667C20.4429 25.6667 25.6667 20.443 25.6667 14C25.6667 13.2178 25.5862 12.4542 25.4398 11.7151Z" fill="#FFC107"/>
<path d="M3.6785 8.56967L7.51158 11.3807C8.54875 8.81292 11.0606 6.99992 14 6.99992C15.7844 6.99992 17.4078 7.67308 18.6439 8.77267L21.9438 5.47275C19.8602 3.53084 17.073 2.33325 14 2.33325C9.51883 2.33325 5.63266 4.86317 3.6785 8.56967Z" fill="#FF3D00"/>
<path d="M14 25.6666C17.0135 25.6666 19.7517 24.5133 21.8219 22.6379L18.2111 19.5824C17.0004 20.5031 15.521 21.0011 14 20.9999C10.9655 20.9999 8.38894 19.065 7.41827 16.3647L3.61377 19.296C5.5446 23.0742 9.46577 25.6666 14 25.6666Z" fill="#0E9D57"/>
<path d="M25.4398 11.715H24.5V11.6666H14V16.3333H20.5934C20.1333 17.6262 19.3045 18.756 18.2093 19.583L18.2111 19.5819L21.8219 22.6374C21.5664 22.8695 25.6667 19.8333 25.6667 14C25.6667 13.2177 25.5862 12.4541 25.4398 11.715Z" fill="#1976D2"/>
</svg>
