<svg width="10" height="10" viewBox="0 0 14 18" fill="none" xmlns="http://www.w3.org/2000/svg">
<path fill-rule="evenodd" clip-rule="evenodd" d="M6.87044 17.0516C3.79393 17.0516 1.16666 16.5728 1.16666 14.6555C1.16666 12.7382 3.77726 10.9683 6.87044 10.9683C9.94696 10.9683 12.5742 12.7211 12.5742 14.6384C12.5742 16.5549 9.96363 17.0516 6.87044 17.0516Z" stroke="#0D0D26" stroke-linecap="round" stroke-linejoin="round"/>
<path fill-rule="evenodd" clip-rule="evenodd" d="M6.86442 8.31136C8.88335 8.31136 10.5197 6.675 10.5197 4.65606C10.5197 2.63712 8.88335 1 6.86442 1C4.84548 1 3.20833 2.63712 3.20833 4.65606C3.20154 6.66818 4.82654 8.30455 6.83866 8.31136C6.84775 8.31136 6.85608 8.31136 6.86442 8.31136Z" stroke="#0D0D26" stroke-linecap="round" stroke-linejoin="round"/>
</svg>
