<svg width="47" height="47" viewBox="0 0 47 47" fill="none" xmlns="http://www.w3.org/2000/svg">
<path d="M23.5 0.479004C10.6951 0.479004 0.3125 10.8616 0.3125 23.6665C0.3125 36.4714 10.6951 46.854 23.5 46.854C36.3049 46.854 46.6875 36.4714 46.6875 23.6665C46.6875 10.8616 36.3049 0.479004 23.5 0.479004ZM30.9583 24.0236L19.6544 32.2479C19.5924 32.2925 19.5194 32.3191 19.4433 32.3248C19.3672 32.3305 19.291 32.3151 19.223 32.2804C19.1551 32.2456 19.0981 32.1928 19.0582 32.1277C19.0183 32.0626 18.9972 31.9878 18.9971 31.9115V15.4732C18.9968 15.3968 19.0177 15.3217 19.0575 15.2564C19.0973 15.1911 19.1544 15.1381 19.2225 15.1033C19.2905 15.0685 19.3669 15.0531 19.4432 15.0591C19.5194 15.065 19.5925 15.0919 19.6544 15.1368L30.9583 23.356C31.0117 23.3937 31.0553 23.4438 31.0853 23.5018C31.1154 23.5599 31.1311 23.6244 31.1311 23.6898C31.1311 23.7552 31.1154 23.8197 31.0853 23.8777C31.0553 23.9358 31.0117 23.9859 30.9583 24.0236Z" fill="#FF002E"/>
</svg>
