<svg width="24" height="25" viewBox="0 0 24 25" fill="none" xmlns="http://www.w3.org/2000/svg">
<path d="M20.5025 3.50955C18.2472 1.24221 15.2442 0 12.0482 0C5.46332 0 0.0964826 5.36683 0.0964826 11.9518C0.0964826 14.0623 0.651256 16.1126 1.68844 17.9216L0 24.1206L6.33166 22.4563C8.0804 23.409 10.0462 23.9156 12.0482 23.9156C18.6332 23.9156 24 18.5487 24 11.9638C24 8.76784 22.7578 5.76482 20.5025 3.50955ZM12.0482 21.8894C10.2633 21.8894 8.51457 21.407 6.98291 20.5025L6.6211 20.2854L2.85829 21.2744L3.8593 17.608L3.61809 17.2342C2.62915 15.6543 2.09849 13.8211 2.09849 11.9518C2.09849 6.47638 6.5608 2.01407 12.0362 2.01407C14.6894 2.01407 17.1859 3.05126 19.0553 4.93266C20.9367 6.81407 21.9618 9.31055 21.9618 11.9638C21.9859 17.4392 17.5236 21.8894 12.0482 21.8894ZM17.4995 14.4603C17.198 14.3156 15.7266 13.592 15.4613 13.4834C15.1839 13.3869 14.991 13.3387 14.7859 13.6281C14.5809 13.9296 14.0141 14.605 13.8452 14.798C13.6764 15.003 13.4955 15.0271 13.194 14.8704C12.8925 14.7256 11.9276 14.4 10.794 13.3869C9.90151 12.591 9.31055 11.6141 9.12965 11.3126C8.9608 11.0111 9.10553 10.8543 9.26231 10.6975C9.39497 10.5648 9.56382 10.3477 9.70854 10.1789C9.85327 10.01 9.91357 9.87739 10.01 9.68442C10.1065 9.4794 10.0583 9.31055 9.98593 9.16583C9.91357 9.02111 9.31055 7.54975 9.06935 6.94673C8.82814 6.36784 8.57487 6.4402 8.39397 6.42814C8.21306 6.42814 8.0201 6.42814 7.81507 6.42814C7.61005 6.42814 7.29648 6.5005 7.01909 6.80201C6.75377 7.10352 5.98191 7.82714 5.98191 9.29849C5.98191 10.7698 7.05528 12.193 7.2 12.3859C7.34472 12.591 9.31055 15.606 12.3015 16.8965C13.0131 17.2101 13.5678 17.391 14.002 17.5236C14.7136 17.7528 15.3648 17.7166 15.8834 17.6442C16.4623 17.5598 17.6563 16.9206 17.8975 16.2211C18.1508 15.5216 18.1508 14.9307 18.0663 14.798C17.9819 14.6653 17.801 14.605 17.4995 14.4603Z" fill="black"/>
</svg>
